<ttFont>
<head>
    <!-- Most of this table will be recalculated by the compiler -->
    <tableVersion value="1.0"/>
    <fontRevision value="1.0"/>
    <checkSumAdjustment value="0xa8ea78b9"/>
    <magicNumber value="0x5f0f3cf5"/>
    <flags value="00000000 00001011"/>
    <unitsPerEm value="1000"/>
    <created value="Mon Jan 18 20:13:06 2021"/>
    <modified value="Mon Jan 18 20:13:06 2021"/>
    <xMin value="4"/>
    <yMin value="-230"/>
    <xMax value="745"/>
    <yMax value="843"/>
    <macStyle value="00000000 00000000"/>
    <lowestRecPPEM value="8"/>
    <fontDirectionHint value="2"/>
    <indexToLocFormat value="0"/>
    <glyphDataFormat value="0"/>
  </head>
    <TTGlyph name=".notdef" xMin="50" yMin="0" xMax="450" yMax="533">
      <contour>
        <pt x="100" y="50" on="1"/>
        <pt x="400" y="50" on="1"/>
        <pt x="400" y="483" on="1"/>
        <pt x="100" y="483" on="1"/>
      </contour>
      <contour>
        <pt x="50" y="0" on="1"/>
        <pt x="50" y="533" on="1"/>
        <pt x="450" y="533" on="1"/>
        <pt x="450" y="0" on="1"/>
      </contour>
    </TTGlyph>
    <TTGlyph name="C" xMin="87" yMin="-82" xMax="521" yMax="746">
      <contour>
        <pt x="310" y="621" on="1"/>
        <pt x="330" y="663" on="0"/>
        <pt x="260" y="722" on="0"/>
        <pt x="223" y="715" on="1"/>
        <pt x="202" y="670" on="0"/>
        <pt x="266" y="601" on="0"/>
      </contour>
      <contour>
        <pt x="213" y="711" on="1"/>
        <pt x="207" y="708" on="0"/>
        <pt x="206" y="707" on="1"/>
        <pt x="240" y="741" on="1"/>
        <pt x="259" y="757" on="0"/>
        <pt x="333" y="734" on="0"/>
        <pt x="361" y="676" on="0"/>
        <pt x="329" y="632" on="1"/>
        <pt x="295" y="598" on="1"/>
        <pt x="269" y="579" on="0"/>
        <pt x="215" y="583" on="0"/>
        <pt x="185" y="619" on="0"/>
        <pt x="178" y="670" on="0"/>
        <pt x="200" y="698" on="1"/>
      </contour>
      <contour>
        <pt x="173" y="460" on="1"/>
        <pt x="340" y="550" on="0"/>
        <pt x="386" y="468" on="1"/>
        <pt x="421" y="406" on="0"/>
        <pt x="374" y="279" on="1"/>
        <pt x="327" y="155" on="0"/>
        <pt x="244" y="78" on="1"/>
        <pt x="232" y="66" on="0"/>
        <pt x="219" y="57" on="1"/>
        <pt x="250" y="62" on="0"/>
        <pt x="271" y="57" on="1"/>
        <pt x="295" y="51" on="0"/>
        <pt x="350" y="21" on="0"/>
        <pt x="394" y="-5" on="0"/>
        <pt x="442" y="-27" on="0"/>
        <pt x="494" y="-26" on="0"/>
        <pt x="521" y="-11" on="1"/>
        <pt x="461" y="-66" on="1"/>
        <pt x="434" y="-81" on="0"/>
        <pt x="381" y="-82" on="0"/>
        <pt x="333" y="-61" on="0"/>
        <pt x="289" y="-35" on="0"/>
        <pt x="234" y="-5" on="0"/>
        <pt x="210" y="1" on="1"/>
        <pt x="190" y="7" on="0"/>
        <pt x="105" y="-7" on="0"/>
        <pt x="87" y="-2" on="1"/>
        <pt x="117" y="26" on="1"/>
        <pt x="116" y="26" on="0"/>
        <pt x="114" y="26" on="1"/>
        <pt x="125" y="34" on="1"/>
        <pt x="147" y="54" on="1"/>
        <pt x="149" y="54" on="0"/>
        <pt x="150" y="53" on="1"/>
        <pt x="239" y="132" on="0"/>
        <pt x="349" y="374" on="0"/>
        <pt x="319" y="427" on="1"/>
        <pt x="285" y="489" on="0"/>
        <pt x="146" y="415" on="1"/>
      </contour>
    </TTGlyph>
    <TTGlyph name="K" xMin="59" yMin="-174" xMax="573" yMax="758">
      <contour>
        <pt x="355" y="-126" on="1"/>
        <pt x="367" y="-98" on="0"/>
        <pt x="342" y="-47" on="0"/>
        <pt x="310" y="-40" on="1"/>
        <pt x="293" y="-37" on="0"/>
        <pt x="270" y="-34" on="0"/>
        <pt x="262" y="-35" on="0"/>
        <pt x="257" y="-34" on="0"/>
        <pt x="254" y="-32" on="1"/>
        <pt x="233" y="-64" on="0"/>
        <pt x="237" y="-116" on="0"/>
        <pt x="275" y="-137" on="0"/>
        <pt x="327" y="-141" on="0"/>
      </contour>
      <contour>
        <pt x="139" y="735" on="1"/>
        <pt x="140" y="736" on="0"/>
        <pt x="149" y="744" on="0"/>
        <pt x="155" y="749" on="0"/>
        <pt x="165" y="756" on="0"/>
        <pt x="174" y="759" on="0"/>
        <pt x="178" y="758" on="1"/>
        <pt x="189" y="756" on="0"/>
        <pt x="220" y="706" on="0"/>
        <pt x="255" y="630" on="0"/>
        <pt x="256" y="628" on="1"/>
        <pt x="274" y="594" on="0"/>
        <pt x="336" y="446" on="1"/>
        <pt x="337" y="447" on="1"/>
        <pt x="337" y="446" on="1"/>
        <pt x="422" y="237" on="0"/>
        <pt x="444" y="201" on="1"/>
        <pt x="446" y="197" on="0"/>
        <pt x="457" y="177" on="0"/>
        <pt x="468" y="158" on="0"/>
        <pt x="483" y="132" on="0"/>
        <pt x="498" y="111" on="0"/>
        <pt x="515" y="89" on="0"/>
        <pt x="532" y="74" on="0"/>
        <pt x="549" y="65" on="0"/>
        <pt x="566" y="66" on="0"/>
        <pt x="573" y="72" on="1"/>
        <pt x="508" y="7" on="1"/>
        <pt x="500" y="1" on="0"/>
        <pt x="483" y="0" on="0"/>
        <pt x="466" y="9" on="0"/>
        <pt x="449" y="24" on="0"/>
        <pt x="433" y="46" on="0"/>
        <pt x="418" y="67" on="0"/>
        <pt x="403" y="93" on="0"/>
        <pt x="392" y="112" on="0"/>
        <pt x="381" y="132" on="0"/>
        <pt x="379" y="136" on="1"/>
        <pt x="359" y="168" on="0"/>
        <pt x="293" y="330" on="1"/>
        <pt x="171" y="63" on="0"/>
        <pt x="134" y="2" on="1"/>
        <pt x="59" y="-1" on="1"/>
        <pt x="80" y="32" on="0"/>
        <pt x="94" y="53" on="1"/>
        <pt x="109" y="77" on="1"/>
        <pt x="214" y="239" on="0"/>
        <pt x="249" y="312" on="1"/>
        <pt x="257" y="328" on="0"/>
        <pt x="264" y="366" on="0"/>
        <pt x="271" y="381" on="1"/>
        <pt x="209" y="527" on="0"/>
        <pt x="191" y="563" on="1"/>
        <pt x="189" y="566" on="0"/>
        <pt x="155" y="640" on="0"/>
        <pt x="124" y="691" on="0"/>
        <pt x="112" y="693" on="1"/>
        <pt x="108" y="694" on="0"/>
        <pt x="99" y="691" on="0"/>
        <pt x="90" y="684" on="0"/>
        <pt x="84" y="679" on="0"/>
        <pt x="75" y="671" on="0"/>
        <pt x="74" y="670" on="1"/>
      </contour>
      <contour>
        <pt x="254" y="-32" on="1"/>
        <pt x="253" y="-31" on="1"/>
        <pt x="289" y="5" on="1"/>
        <pt x="292" y="2" on="0"/>
        <pt x="297" y="1" on="0"/>
        <pt x="304" y="2" on="0"/>
        <pt x="328" y="0" on="0"/>
        <pt x="346" y="-4" on="1"/>
        <pt x="385" y="-12" on="0"/>
        <pt x="404" y="-82" on="0"/>
        <pt x="379" y="-110" on="1"/>
        <pt x="343" y="-146" on="1"/>
        <pt x="322" y="-164" on="0"/>
        <pt x="269" y="-179" on="0"/>
        <pt x="226" y="-169" on="0"/>
        <pt x="197" y="-144" on="0"/>
        <pt x="199" y="-95" on="0"/>
        <pt x="219" y="-66" on="1"/>
      </contour>
    </TTGlyph>
    <TTGlyph name="L" xMin="88" yMin="-7" xMax="415" yMax="733">
      <contour>
        <pt x="406" y="710" on="1"/>
        <pt x="388" y="740" on="0"/>
        <pt x="367" y="733" on="1"/>
        <pt x="365" y="733" on="0"/>
        <pt x="365" y="732" on="1"/>
        <pt x="360" y="730" on="0"/>
        <pt x="358" y="728" on="1"/>
        <pt x="340" y="716" on="0"/>
        <pt x="329" y="700" on="1"/>
        <pt x="327" y="697" on="0"/>
        <pt x="323" y="693" on="1"/>
        <pt x="324" y="694" on="0"/>
        <pt x="325" y="695" on="1"/>
        <pt x="326" y="696" on="0"/>
        <pt x="326" y="696" on="1"/>
        <pt x="327" y="697" on="0"/>
        <pt x="328" y="697" on="1"/>
        <pt x="327" y="696" on="1"/>
        <pt x="328" y="696" on="0"/>
        <pt x="331" y="698" on="0"/>
        <pt x="332" y="699" on="1"/>
        <pt x="352" y="706" on="0"/>
        <pt x="386" y="655" on="0"/>
        <pt x="381" y="630" on="1"/>
        <pt x="387" y="632" on="0"/>
        <pt x="390" y="634" on="1"/>
        <pt x="381" y="625" on="1"/>
        <pt x="379" y="623" on="0"/>
        <pt x="377" y="619" on="1"/>
        <pt x="395" y="637" on="1"/>
        <pt x="407" y="646" on="0"/>
        <pt x="415" y="659" on="1"/>
        <pt x="412" y="656" on="1"/>
        <pt x="424" y="680" on="0"/>
      </contour>
      <contour>
        <pt x="414" y="463" on="1"/>
        <pt x="345" y="394" on="1"/>
        <pt x="345" y="415" on="0"/>
        <pt x="306" y="440" on="0"/>
        <pt x="258" y="439" on="0"/>
        <pt x="239" y="434" on="1"/>
        <pt x="226" y="429" on="0"/>
        <pt x="216" y="422" on="1"/>
        <pt x="173" y="356" on="0"/>
        <pt x="128" y="183" on="0"/>
        <pt x="150" y="128" on="1"/>
        <pt x="166" y="88" on="0"/>
        <pt x="290" y="44" on="0"/>
        <pt x="358" y="67" on="1"/>
        <pt x="389" y="80" on="0"/>
        <pt x="401" y="90" on="1"/>
        <pt x="400" y="89" on="0"/>
        <pt x="398" y="84" on="0"/>
        <pt x="397" y="83" on="1"/>
        <pt x="367" y="24" on="1"/>
        <pt x="364" y="17" on="0"/>
        <pt x="354" y="7" on="0"/>
        <pt x="340" y="1" on="0"/>
        <pt x="329" y="-3" on="0"/>
        <pt x="311" y="-6" on="0"/>
        <pt x="303" y="-6" on="0"/>
        <pt x="285" y="-7" on="0"/>
        <pt x="284" y="-7" on="1"/>
        <pt x="260" y="-8" on="0"/>
        <pt x="214" y="-2" on="0"/>
        <pt x="150" y="17" on="0"/>
        <pt x="99" y="65" on="0"/>
        <pt x="88" y="101" on="1"/>
        <pt x="68" y="166" on="0"/>
        <pt x="124" y="333" on="0"/>
        <pt x="174" y="389" on="1"/>
        <pt x="243" y="458" on="1"/>
        <pt x="282" y="493" on="0"/>
        <pt x="308" y="503" on="1"/>
        <pt x="327" y="508" on="0"/>
        <pt x="375" y="509" on="0"/>
        <pt x="414" y="484" on="0"/>
      </contour>
      <contour>
        <pt x="381" y="630" on="1"/>
        <pt x="376" y="618" on="0"/>
        <pt x="373" y="615" on="1"/>
        <pt x="377" y="619" on="1"/>
        <pt x="353" y="584" on="0"/>
        <pt x="319" y="597" on="1"/>
        <pt x="290" y="608" on="0"/>
        <pt x="288" y="637" on="1"/>
        <pt x="286" y="668" on="0"/>
        <pt x="323" y="693" on="1"/>
        <pt x="325" y="695" on="0"/>
        <pt x="326" y="696" on="1"/>
        <pt x="327" y="696" on="0"/>
        <pt x="327" y="696" on="1"/>
        <pt x="314" y="668" on="0"/>
        <pt x="354" y="623" on="0"/>
      </contour>
    </TTGlyph>
    <TTGlyph name="M" xMin="45" yMin="-61" xMax="739" yMax="733">
      <contour>
        <pt x="303" y="82" on="1"/>
        <pt x="324" y="96" on="0"/>
        <pt x="339" y="118" on="1"/>
      </contour>
      <contour>
        <pt x="592" y="-61" on="1"/>
        <pt x="650" y="-3" on="1"/>
        <pt x="681" y="25" on="0"/>
        <pt x="724" y="127" on="0"/>
        <pt x="740" y="238" on="0"/>
        <pt x="738" y="346" on="0"/>
        <pt x="728" y="386" on="1"/>
        <pt x="715" y="433" on="0"/>
        <pt x="651" y="490" on="0"/>
        <pt x="566" y="480" on="0"/>
        <pt x="530" y="435" on="1"/>
        <pt x="508" y="414" on="1"/>
        <pt x="504" y="406" on="0"/>
        <pt x="497" y="400" on="1"/>
        <pt x="548" y="429" on="0"/>
        <pt x="642" y="376" on="0"/>
        <pt x="657" y="316" on="1"/>
        <pt x="668" y="260" on="0"/>
        <pt x="669" y="127" on="0"/>
        <pt x="628" y="-20" on="0"/>
      </contour>
      <contour>
        <pt x="461" y="646" on="1"/>
        <pt x="490" y="664" on="0"/>
        <pt x="472" y="698" on="1"/>
        <pt x="456" y="729" on="0"/>
        <pt x="424" y="733" on="1"/>
        <pt x="405" y="736" on="0"/>
        <pt x="390" y="725" on="1"/>
        <pt x="379" y="714" on="1"/>
        <pt x="373" y="704" on="0"/>
        <pt x="371" y="699" on="1"/>
        <pt x="399" y="706" on="0"/>
        <pt x="449" y="660" on="0"/>
        <pt x="444" y="635" on="1"/>
        <pt x="449" y="637" on="0"/>
        <pt x="459" y="643" on="1"/>
        <pt x="459" y="644" on="0"/>
      </contour>
      <contour>
        <pt x="217" y="498" on="1"/>
        <pt x="178" y="443" on="0"/>
        <pt x="114" y="261" on="0"/>
        <pt x="115" y="193" on="1"/>
        <pt x="117" y="138" on="0"/>
        <pt x="180" y="69" on="0"/>
        <pt x="260" y="62" on="0"/>
        <pt x="298" y="79" on="1"/>
        <pt x="312" y="97" on="0"/>
        <pt x="318" y="112" on="1"/>
        <pt x="342" y="169" on="0"/>
        <pt x="354" y="292" on="1"/>
        <pt x="352" y="417" on="0"/>
        <pt x="357" y="429" on="1"/>
        <pt x="427" y="499" on="1"/>
        <pt x="435" y="452" on="0"/>
        <pt x="425" y="363" on="1"/>
        <pt x="425" y="339" on="0"/>
        <pt x="426" y="328" on="1"/>
        <pt x="430" y="335" on="0"/>
        <pt x="441" y="347" on="1"/>
        <pt x="461" y="367" on="1"/>
        <pt x="469" y="377" on="0"/>
        <pt x="485" y="391" on="1"/>
        <pt x="488" y="393" on="1"/>
        <pt x="490" y="394" on="0"/>
        <pt x="496" y="399" on="0"/>
        <pt x="497" y="400" on="1"/>
        <pt x="481" y="379" on="0"/>
        <pt x="458" y="335" on="0"/>
        <pt x="444" y="281" on="0"/>
        <pt x="435" y="245" on="0"/>
        <pt x="432" y="179" on="0"/>
        <pt x="431" y="151" on="0"/>
        <pt x="432" y="72" on="0"/>
        <pt x="432" y="61" on="1"/>
        <pt x="362" y="-10" on="1"/>
        <pt x="362" y="-5" on="0"/>
        <pt x="358" y="137" on="1"/>
        <pt x="340" y="119" on="1"/>
        <pt x="340" y="120" on="1"/>
        <pt x="277" y="56" on="1"/>
        <pt x="284" y="63" on="0"/>
        <pt x="288" y="68" on="1"/>
        <pt x="270" y="49" on="1"/>
        <pt x="274" y="53" on="0"/>
        <pt x="277" y="56" on="1"/>
        <pt x="273" y="53" on="0"/>
        <pt x="270" y="49" on="1"/>
        <pt x="243" y="3" on="0"/>
        <pt x="136" y="-15" on="0"/>
        <pt x="47" y="55" on="0"/>
        <pt x="45" y="122" on="1"/>
        <pt x="43" y="178" on="0"/>
        <pt x="59" y="298" on="0"/>
        <pt x="118" y="431" on="0"/>
        <pt x="165" y="461" on="1"/>
      </contour>
      <contour>
        <pt x="381" y="717" on="1"/>
        <pt x="397" y="733" on="1"/>
        <pt x="388" y="726" on="0"/>
      </contour>
      <contour>
        <pt x="381" y="717" on="1"/>
        <pt x="381" y="716" on="0"/>
        <pt x="379" y="714" on="1"/>
        <pt x="356" y="691" on="1"/>
        <pt x="361" y="695" on="0"/>
        <pt x="371" y="699" on="1"/>
        <pt x="360" y="666" on="0"/>
        <pt x="409" y="620" on="0"/>
        <pt x="444" y="635" on="1"/>
        <pt x="442" y="629" on="0"/>
        <pt x="440" y="625" on="1"/>
        <pt x="459" y="643" on="1"/>
        <pt x="463" y="646" on="0"/>
        <pt x="471" y="654" on="1"/>
        <pt x="442" y="625" on="1"/>
        <pt x="401" y="581" on="0"/>
        <pt x="362" y="599" on="1"/>
        <pt x="333" y="614" on="0"/>
        <pt x="334" y="647" on="1"/>
        <pt x="335" y="677" on="0"/>
        <pt x="363" y="699" on="1"/>
      </contour>
    </TTGlyph>
    <TTGlyph name="N" xMin="36" yMin="-31" xMax="506" yMax="746">
      <contour>
        <pt x="310" y="621" on="1"/>
        <pt x="330" y="663" on="0"/>
        <pt x="260" y="722" on="0"/>
        <pt x="223" y="715" on="1"/>
        <pt x="202" y="670" on="0"/>
        <pt x="266" y="601" on="0"/>
      </contour>
      <contour>
        <pt x="213" y="711" on="1"/>
        <pt x="207" y="708" on="0"/>
        <pt x="206" y="707" on="1"/>
        <pt x="240" y="741" on="1"/>
        <pt x="259" y="757" on="0"/>
        <pt x="333" y="734" on="0"/>
        <pt x="361" y="676" on="0"/>
        <pt x="329" y="632" on="1"/>
        <pt x="295" y="598" on="1"/>
        <pt x="269" y="579" on="0"/>
        <pt x="215" y="583" on="0"/>
        <pt x="185" y="619" on="0"/>
        <pt x="178" y="670" on="0"/>
        <pt x="200" y="698" on="1"/>
      </contour>
      <contour>
        <pt x="106" y="504" on="1"/>
        <pt x="126" y="517" on="0"/>
        <pt x="137" y="473" on="1"/>
        <pt x="147" y="437" on="0"/>
        <pt x="149" y="370" on="1"/>
        <pt x="172" y="410" on="0"/>
        <pt x="194" y="430" on="1"/>
        <pt x="209" y="442" on="0"/>
        <pt x="224" y="448" on="1"/>
        <pt x="202" y="410" on="0"/>
        <pt x="171" y="300" on="0"/>
        <pt x="158" y="217" on="0"/>
        <pt x="142" y="88" on="0"/>
        <pt x="138" y="63" on="1"/>
        <pt x="136" y="61" on="1"/>
        <pt x="135" y="59" on="0"/>
        <pt x="135" y="54" on="1"/>
        <pt x="64" y="-16" on="1"/>
        <pt x="81" y="69" on="0"/>
        <pt x="80" y="239" on="1"/>
        <pt x="79" y="445" on="0"/>
        <pt x="42" y="436" on="1"/>
        <pt x="39" y="435" on="0"/>
        <pt x="36" y="433" on="1"/>
      </contour>
      <contour>
        <pt x="354" y="124" on="1"/>
        <pt x="370" y="139" on="1"/>
        <pt x="369" y="138" on="0"/>
        <pt x="367" y="136" on="1"/>
        <pt x="370" y="139" on="1"/>
        <pt x="374" y="143" on="0"/>
        <pt x="377" y="145" on="1"/>
        <pt x="393" y="160" on="0"/>
        <pt x="422" y="195" on="0"/>
        <pt x="438" y="219" on="0"/>
        <pt x="467" y="266" on="0"/>
        <pt x="474" y="277" on="1"/>
        <pt x="494" y="307" on="0"/>
        <pt x="487" y="392" on="0"/>
        <pt x="444" y="465" on="0"/>
        <pt x="378" y="522" on="0"/>
        <pt x="302" y="527" on="0"/>
        <pt x="265" y="501" on="1"/>
        <pt x="258" y="494" on="0"/>
        <pt x="237" y="467" on="0"/>
        <pt x="230" y="458" on="1"/>
        <pt x="224" y="448" on="1"/>
        <pt x="257" y="460" on="0"/>
        <pt x="329" y="437" on="0"/>
        <pt x="382" y="381" on="0"/>
        <pt x="421" y="309" on="0"/>
        <pt x="421" y="236" on="0"/>
        <pt x="404" y="206" on="1"/>
        <pt x="399" y="199" on="0"/>
        <pt x="377" y="164" on="1"/>
        <pt x="359" y="137" on="0"/>
        <pt x="347" y="120" on="1"/>
        <pt x="287" y="87" on="1"/>
        <pt x="216" y="16" on="1"/>
        <pt x="217" y="15" on="0"/>
        <pt x="220" y="16" on="0"/>
        <pt x="228" y="19" on="1"/>
        <pt x="261" y="26" on="0"/>
        <pt x="322" y="5" on="0"/>
        <pt x="357" y="-24" on="0"/>
        <pt x="410" y="-37" on="0"/>
        <pt x="435" y="-21" on="1"/>
        <pt x="506" y="50" on="1"/>
        <pt x="484" y="35" on="0"/>
        <pt x="434" y="44" on="0"/>
        <pt x="403" y="68" on="0"/>
        <pt x="350" y="93" on="0"/>
        <pt x="325" y="93" on="1"/>
        <pt x="352" y="119" on="1"/>
        <pt x="353" y="120" on="0"/>
        <pt x="357" y="125" on="0"/>
        <pt x="358" y="126" on="1"/>
      </contour>
    </TTGlyph>
    <TTGlyph name="P" xMin="40" yMin="-14" xMax="607" yMax="843">
      <contour>
        <pt x="351" y="710" on="1"/>
        <pt x="345" y="706" on="0"/>
        <pt x="342" y="703" on="1"/>
        <pt x="376" y="737" on="1"/>
        <pt x="390" y="751" on="0"/>
        <pt x="430" y="754" on="0"/>
        <pt x="463" y="735" on="0"/>
        <pt x="487" y="706" on="0"/>
        <pt x="484" y="666" on="0"/>
        <pt x="467" y="649" on="1"/>
        <pt x="433" y="615" on="1"/>
        <pt x="408" y="598" on="0"/>
        <pt x="345" y="614" on="0"/>
        <pt x="320" y="662" on="0"/>
        <pt x="334" y="693" on="1"/>
      </contour>
      <contour>
        <pt x="363" y="716" on="1"/>
        <pt x="351" y="680" on="0"/>
        <pt x="413" y="631" on="0"/>
        <pt x="449" y="641" on="1"/>
        <pt x="459" y="674" on="0"/>
        <pt x="396" y="726" on="0"/>
      </contour>
      <contour>
        <pt x="111" y="843" on="1"/>
        <pt x="143" y="822" on="0"/>
        <pt x="135" y="378" on="1"/>
        <pt x="156" y="411" on="0"/>
        <pt x="184" y="439" on="1"/>
        <pt x="254" y="509" on="1"/>
        <pt x="269" y="522" on="0"/>
        <pt x="317" y="504" on="1"/>
        <pt x="355" y="491" on="0"/>
        <pt x="364" y="349" on="1"/>
        <pt x="386" y="397" on="0"/>
        <pt x="412" y="429" on="1"/>
        <pt x="482" y="499" on="1"/>
        <pt x="497" y="511" on="0"/>
        <pt x="578" y="508" on="0"/>
        <pt x="590" y="493" on="1"/>
        <pt x="608" y="470" on="0"/>
        <pt x="606" y="85" on="0"/>
        <pt x="589" y="57" on="1"/>
        <pt x="518" y="-14" on="1"/>
        <pt x="535" y="15" on="0"/>
        <pt x="537" y="399" on="0"/>
        <pt x="520" y="422" on="1"/>
        <pt x="502" y="444" on="0"/>
        <pt x="443" y="438" on="1"/>
        <pt x="420" y="389" on="0"/>
        <pt x="394" y="266" on="0"/>
        <pt x="375" y="109" on="0"/>
        <pt x="368" y="75" on="1"/>
        <pt x="371" y="68" on="1"/>
        <pt x="301" y="-3" on="1"/>
        <pt x="299" y="-3" on="0"/>
        <pt x="298" y="1" on="1"/>
        <pt x="297" y="0" on="1"/>
        <pt x="297" y="3" on="0"/>
        <pt x="298" y="5" on="1"/>
        <pt x="298" y="25" on="0"/>
        <pt x="297" y="158" on="0"/>
        <pt x="296" y="302" on="0"/>
        <pt x="270" y="424" on="0"/>
        <pt x="246" y="433" on="1"/>
        <pt x="221" y="443" on="0"/>
        <pt x="203" y="444" on="1"/>
        <pt x="142" y="344" on="0"/>
        <pt x="131" y="179" on="1"/>
        <pt x="128" y="85" on="0"/>
        <pt x="128" y="63" on="1"/>
        <pt x="57" y="-7" on="1"/>
        <pt x="57" y="70" on="0"/>
        <pt x="60" y="109" on="1"/>
        <pt x="78" y="749" on="0"/>
        <pt x="40" y="772" on="1"/>
      </contour>
    </TTGlyph>
    <TTGlyph name="Q" xMin="35" yMin="-11" xMax="661" yMax="733">
      <contour>
        <pt x="597" y="418" on="1"/>
        <pt x="603" y="423" on="0"/>
        <pt x="616" y="436" on="1"/>
      </contour>
      <contour>
        <pt x="461" y="646" on="1"/>
        <pt x="490" y="664" on="0"/>
        <pt x="472" y="698" on="1"/>
        <pt x="456" y="729" on="0"/>
        <pt x="424" y="733" on="1"/>
        <pt x="405" y="736" on="0"/>
        <pt x="390" y="725" on="1"/>
        <pt x="379" y="714" on="1"/>
        <pt x="373" y="704" on="0"/>
        <pt x="371" y="699" on="1"/>
        <pt x="399" y="706" on="0"/>
        <pt x="449" y="660" on="0"/>
        <pt x="444" y="635" on="1"/>
        <pt x="449" y="637" on="0"/>
        <pt x="459" y="643" on="1"/>
        <pt x="459" y="644" on="0"/>
      </contour>
      <contour>
        <pt x="657" y="513" on="1"/>
        <pt x="643" y="461" on="0"/>
        <pt x="651" y="93" on="0"/>
        <pt x="661" y="60" on="1"/>
        <pt x="590" y="-11" on="1"/>
        <pt x="582" y="16" on="0"/>
        <pt x="572" y="312" on="0"/>
        <pt x="579" y="400" on="1"/>
        <pt x="564" y="385" on="1"/>
        <pt x="537" y="356" on="0"/>
        <pt x="498" y="337" on="0"/>
        <pt x="478" y="355" on="0"/>
        <pt x="470" y="393" on="0"/>
        <pt x="472" y="421" on="1"/>
        <pt x="451" y="404" on="0"/>
        <pt x="426" y="391" on="1"/>
        <pt x="463" y="292" on="0"/>
        <pt x="453" y="233" on="1"/>
        <pt x="441" y="155" on="0"/>
        <pt x="405" y="119" on="1"/>
        <pt x="334" y="48" on="1"/>
        <pt x="347" y="64" on="0"/>
        <pt x="348" y="65" on="1"/>
        <pt x="313" y="30" on="1"/>
        <pt x="187" y="-44" on="0"/>
        <pt x="106" y="35" on="1"/>
        <pt x="42" y="97" on="0"/>
        <pt x="35" y="217" on="1"/>
        <pt x="28" y="343" on="0"/>
        <pt x="90" y="429" on="1"/>
        <pt x="98" y="440" on="0"/>
        <pt x="107" y="450" on="1"/>
        <pt x="193" y="507" on="1"/>
        <pt x="153" y="467" on="0"/>
        <pt x="129" y="411" on="1"/>
        <pt x="129" y="410" on="0"/>
        <pt x="128" y="410" on="0"/>
        <pt x="128" y="409" on="1"/>
        <pt x="99" y="340" on="0"/>
        <pt x="104" y="189" on="0"/>
        <pt x="167" y="85" on="0"/>
        <pt x="281" y="45" on="0"/>
        <pt x="361" y="86" on="1"/>
        <pt x="374" y="111" on="0"/>
        <pt x="383" y="162" on="1"/>
        <pt x="389" y="199" on="0"/>
        <pt x="359" y="327" on="0"/>
        <pt x="292" y="436" on="0"/>
        <pt x="253" y="436" on="1"/>
        <pt x="324" y="507" on="1"/>
        <pt x="367" y="507" on="0"/>
        <pt x="404" y="439" on="1"/>
        <pt x="422" y="431" on="0"/>
        <pt x="437" y="432" on="1"/>
        <pt x="458" y="433" on="0"/>
        <pt x="475" y="447" on="1"/>
        <pt x="475" y="448" on="0"/>
        <pt x="476" y="449" on="1"/>
        <pt x="527" y="500" on="1"/>
        <pt x="518" y="442" on="0"/>
        <pt x="542" y="380" on="0"/>
        <pt x="579" y="404" on="1"/>
        <pt x="582" y="432" on="0"/>
        <pt x="586" y="443" on="1"/>
      </contour>
      <contour>
        <pt x="381" y="717" on="1"/>
        <pt x="397" y="733" on="1"/>
        <pt x="388" y="726" on="0"/>
      </contour>
      <contour>
        <pt x="381" y="717" on="1"/>
        <pt x="381" y="716" on="0"/>
        <pt x="379" y="714" on="1"/>
        <pt x="356" y="691" on="1"/>
        <pt x="361" y="695" on="0"/>
        <pt x="371" y="699" on="1"/>
        <pt x="360" y="666" on="0"/>
        <pt x="409" y="620" on="0"/>
        <pt x="444" y="635" on="1"/>
        <pt x="442" y="629" on="0"/>
        <pt x="440" y="625" on="1"/>
        <pt x="459" y="643" on="1"/>
        <pt x="463" y="646" on="0"/>
        <pt x="471" y="654" on="1"/>
        <pt x="442" y="625" on="1"/>
        <pt x="401" y="581" on="0"/>
        <pt x="362" y="599" on="1"/>
        <pt x="333" y="614" on="0"/>
        <pt x="334" y="647" on="1"/>
        <pt x="335" y="677" on="0"/>
        <pt x="363" y="699" on="1"/>
      </contour>
    </TTGlyph>
    <TTGlyph name="R" xMin="58" yMin="-185" xMax="369" yMax="733">
      <contour>
        <pt x="249" y="612" on="1"/>
        <pt x="267" y="651" on="0"/>
        <pt x="208" y="707" on="0"/>
        <pt x="174" y="702" on="1"/>
        <pt x="156" y="654" on="0"/>
        <pt x="204" y="590" on="0"/>
      </contour>
      <contour>
        <pt x="145" y="681" on="1"/>
        <pt x="149" y="685" on="1"/>
        <pt x="150" y="686" on="0"/>
        <pt x="154" y="691" on="0"/>
        <pt x="156" y="693" on="1"/>
        <pt x="161" y="698" on="1"/>
        <pt x="158" y="697" on="0"/>
        <pt x="154" y="693" on="1"/>
        <pt x="188" y="727" on="1"/>
        <pt x="205" y="744" on="0"/>
        <pt x="273" y="722" on="0"/>
        <pt x="298" y="665" on="0"/>
        <pt x="268" y="623" on="1"/>
        <pt x="234" y="589" on="1"/>
        <pt x="176" y="549" on="0"/>
        <pt x="116" y="623" on="0"/>
      </contour>
      <contour>
        <pt x="159" y="281" on="1"/>
        <pt x="170" y="295" on="0"/>
        <pt x="191" y="336" on="1"/>
        <pt x="213" y="378" on="0"/>
        <pt x="228" y="394" on="1"/>
        <pt x="276" y="427" on="1"/>
        <pt x="162" y="427" on="0"/>
        <pt x="58" y="429" on="1"/>
        <pt x="129" y="499" on="1"/>
        <pt x="162" y="499" on="0"/>
        <pt x="351" y="498" on="0"/>
        <pt x="359" y="498" on="1"/>
        <pt x="314" y="453" on="1"/>
        <pt x="308" y="439" on="0"/>
        <pt x="283" y="406" on="0"/>
        <pt x="244" y="361" on="0"/>
        <pt x="237" y="353" on="1"/>
        <pt x="228" y="345" on="1"/>
        <pt x="269" y="313" on="0"/>
        <pt x="277" y="309" on="1"/>
        <pt x="341" y="278" on="0"/>
        <pt x="354" y="243" on="1"/>
        <pt x="368" y="210" on="0"/>
        <pt x="369" y="136" on="0"/>
        <pt x="353" y="74" on="0"/>
        <pt x="316" y="0" on="0"/>
        <pt x="282" y="-53" on="0"/>
        <pt x="257" y="-88" on="1"/>
        <pt x="119" y="-185" on="1"/>
        <pt x="130" y="-170" on="0"/>
        <pt x="166" y="-123" on="0"/>
        <pt x="196" y="-85" on="0"/>
        <pt x="232" y="-34" on="0"/>
        <pt x="258" y="9" on="0"/>
        <pt x="282" y="60" on="0"/>
        <pt x="293" y="104" on="0"/>
        <pt x="292" y="152" on="0"/>
        <pt x="284" y="173" on="1"/>
        <pt x="246" y="262" on="0"/>
        <pt x="219" y="276" on="1"/>
        <pt x="201" y="284" on="0"/>
        <pt x="156" y="277" on="1"/>
        <pt x="155" y="277" on="1"/>
        <pt x="158" y="280" on="1"/>
        <pt x="159" y="280" on="0"/>
      </contour>
      <contour>
        <pt x="159" y="281" on="1"/>
        <pt x="158" y="280" on="1"/>
        <pt x="159" y="280" on="0"/>
      </contour>
    </TTGlyph>
    <TTGlyph name="S" xMin="31" yMin="-9" xMax="379" yMax="733">
      <contour>
        <pt x="269" y="283" on="1"/>
        <pt x="288" y="329" on="0"/>
        <pt x="278" y="392" on="0"/>
        <pt x="250" y="431" on="0"/>
        <pt x="194" y="452" on="0"/>
        <pt x="138" y="458" on="0"/>
        <pt x="106" y="456" on="1"/>
        <pt x="113" y="380" on="0"/>
        <pt x="113" y="267" on="1"/>
        <pt x="176" y="288" on="0"/>
        <pt x="199" y="287" on="1"/>
        <pt x="258" y="285" on="0"/>
      </contour>
      <contour>
        <pt x="245" y="226" on="1"/>
        <pt x="241" y="222" on="1"/>
        <pt x="241" y="223" on="0"/>
        <pt x="243" y="227" on="1"/>
        <pt x="214" y="233" on="0"/>
        <pt x="147" y="235" on="1"/>
        <pt x="137" y="236" on="0"/>
        <pt x="114" y="231" on="1"/>
        <pt x="112" y="97" on="0"/>
        <pt x="109" y="64" on="1"/>
        <pt x="110" y="65" on="1"/>
        <pt x="123" y="62" on="0"/>
        <pt x="190" y="58" on="0"/>
        <pt x="294" y="63" on="0"/>
        <pt x="327" y="74" on="1"/>
        <pt x="335" y="102" on="0"/>
        <pt x="327" y="139" on="1"/>
        <pt x="311" y="209" on="0"/>
      </contour>
      <contour>
        <pt x="204" y="613" on="1"/>
        <pt x="222" y="652" on="0"/>
        <pt x="158" y="709" on="0"/>
        <pt x="125" y="701" on="1"/>
        <pt x="107" y="653" on="0"/>
        <pt x="157" y="590" on="0"/>
      </contour>
      <contour>
        <pt x="101" y="506" on="1"/>
        <pt x="137" y="514" on="0"/>
        <pt x="213" y="518" on="0"/>
        <pt x="295" y="499" on="0"/>
        <pt x="343" y="453" on="0"/>
        <pt x="338" y="353" on="0"/>
        <pt x="299" y="281" on="1"/>
        <pt x="297" y="278" on="1"/>
        <pt x="363" y="261" on="0"/>
        <pt x="379" y="191" on="1"/>
        <pt x="390" y="142" on="0"/>
        <pt x="365" y="94" on="1"/>
        <pt x="334" y="63" on="1"/>
        <pt x="304" y="31" on="1"/>
        <pt x="282" y="9" on="0"/>
        <pt x="158" y="-10" on="0"/>
        <pt x="65" y="-7" on="0"/>
        <pt x="43" y="-4" on="1"/>
        <pt x="39" y="-8" on="1"/>
        <pt x="45" y="7" on="0"/>
        <pt x="44" y="356" on="0"/>
        <pt x="31" y="435" on="1"/>
        <pt x="43" y="447" on="1"/>
        <pt x="42" y="447" on="1"/>
      </contour>
      <contour>
        <pt x="223" y="623" on="1"/>
        <pt x="188" y="589" on="1"/>
        <pt x="189" y="590" on="0"/>
        <pt x="191" y="592" on="1"/>
        <pt x="187" y="589" on="1"/>
        <pt x="128" y="549" on="0"/>
        <pt x="67" y="623" on="0"/>
        <pt x="96" y="681" on="1"/>
        <pt x="112" y="696" on="1"/>
        <pt x="111" y="696" on="0"/>
        <pt x="110" y="695" on="1"/>
        <pt x="142" y="727" on="1"/>
        <pt x="159" y="744" on="0"/>
        <pt x="228" y="722" on="0"/>
        <pt x="253" y="665" on="0"/>
      </contour>
    </TTGlyph>
    <TTGlyph name="T" xMin="45" yMin="-210" xMax="405" yMax="818">
      <contour>
        <pt x="165" y="-63" on="1"/>
        <pt x="132" y="-128" on="0"/>
        <pt x="201" y="-189" on="0"/>
        <pt x="252" y="-162" on="1"/>
        <pt x="264" y="-134" on="0"/>
        <pt x="242" y="-77" on="0"/>
        <pt x="213" y="-70" on="1"/>
        <pt x="195" y="-66" on="0"/>
        <pt x="171" y="-64" on="0"/>
        <pt x="171" y="-66" on="0"/>
      </contour>
      <contour>
        <pt x="279" y="-144" on="1"/>
        <pt x="243" y="-180" on="1"/>
        <pt x="244" y="-179" on="0"/>
        <pt x="246" y="-175" on="1"/>
        <pt x="243" y="-178" on="1"/>
        <pt x="211" y="-210" on="0"/>
        <pt x="132" y="-209" on="0"/>
        <pt x="106" y="-148" on="0"/>
        <pt x="132" y="-93" on="1"/>
        <pt x="164" y="-62" on="1"/>
        <pt x="163" y="-61" on="1"/>
        <pt x="199" y="-25" on="1"/>
        <pt x="202" y="-28" on="0"/>
        <pt x="207" y="-29" on="0"/>
        <pt x="213" y="-28" on="0"/>
        <pt x="233" y="-30" on="0"/>
        <pt x="249" y="-34" on="1"/>
        <pt x="283" y="-42" on="0"/>
        <pt x="301" y="-114" on="0"/>
      </contour>
      <contour>
        <pt x="115" y="818" on="1"/>
        <pt x="118" y="821" on="0"/>
        <pt x="123" y="806" on="0"/>
        <pt x="125" y="774" on="0"/>
        <pt x="125" y="730" on="0"/>
        <pt x="125" y="670" on="0"/>
        <pt x="123" y="608" on="0"/>
        <pt x="121" y="531" on="0"/>
        <pt x="119" y="461" on="0"/>
        <pt x="117" y="378" on="0"/>
        <pt x="117" y="344" on="1"/>
        <pt x="151" y="390" on="0"/>
        <pt x="174" y="414" on="1"/>
        <pt x="231" y="462" on="1"/>
        <pt x="232" y="463" on="1"/>
        <pt x="234" y="464" on="0"/>
        <pt x="236" y="466" on="1"/>
        <pt x="259" y="485" on="1"/>
        <pt x="251" y="477" on="1"/>
        <pt x="363" y="550" on="0"/>
        <pt x="383" y="386" on="1"/>
        <pt x="389" y="332" on="0"/>
        <pt x="385" y="163" on="1"/>
        <pt x="382" y="61" on="0"/>
        <pt x="397" y="61" on="1"/>
        <pt x="401" y="61" on="0"/>
        <pt x="405" y="64" on="1"/>
        <pt x="334" y="-7" on="1"/>
        <pt x="320" y="-18" on="0"/>
        <pt x="316" y="11" on="1"/>
        <pt x="313" y="29" on="0"/>
        <pt x="316" y="168" on="1"/>
        <pt x="321" y="366" on="0"/>
        <pt x="280" y="412" on="1"/>
        <pt x="252" y="443" on="0"/>
        <pt x="202" y="418" on="1"/>
        <pt x="187" y="400" on="0"/>
        <pt x="127" y="327" on="0"/>
        <pt x="116" y="314" on="1"/>
        <pt x="114" y="182" on="0"/>
        <pt x="128" y="42" on="0"/>
        <pt x="147" y="57" on="1"/>
        <pt x="76" y="-14" on="1"/>
        <pt x="61" y="-26" on="0"/>
        <pt x="53" y="18" on="1"/>
        <pt x="40" y="96" on="0"/>
        <pt x="51" y="475" on="1"/>
        <pt x="57" y="745" on="0"/>
        <pt x="45" y="748" on="1"/>
      </contour>
    </TTGlyph>
    <TTGlyph name="a" xMin="51" yMin="-7" xMax="444" yMax="501">
      <contour>
        <pt x="122" y="501" on="1"/>
        <pt x="146" y="500" on="0"/>
        <pt x="444" y="500" on="1"/>
        <pt x="373" y="430" on="1"/>
        <pt x="364" y="430" on="0"/>
        <pt x="256" y="429" on="0"/>
        <pt x="219" y="429" on="1"/>
        <pt x="173" y="365" on="0"/>
        <pt x="117" y="203" on="0"/>
        <pt x="133" y="146" on="1"/>
        <pt x="148" y="92" on="0"/>
        <pt x="312" y="39" on="0"/>
        <pt x="363" y="62" on="1"/>
        <pt x="375" y="68" on="0"/>
        <pt x="387" y="77" on="1"/>
        <pt x="395" y="83" on="0"/>
        <pt x="409" y="95" on="1"/>
        <pt x="340" y="26" on="1"/>
        <pt x="313" y="2" on="0"/>
        <pt x="294" y="-7" on="1"/>
        <pt x="243" y="-30" on="0"/>
        <pt x="80" y="23" on="0"/>
        <pt x="64" y="77" on="1"/>
        <pt x="46" y="142" on="0"/>
        <pt x="122" y="330" on="0"/>
        <pt x="174" y="389" on="1"/>
        <pt x="214" y="429" on="1"/>
        <pt x="75" y="429" on="0"/>
        <pt x="51" y="430" on="1"/>
      </contour>
    </TTGlyph>
    <TTGlyph name="aacute" xMin="51" yMin="-7" xMax="444" yMax="606">
      <contour>
        <pt x="122" y="501" on="1"/>
        <pt x="146" y="500" on="0"/>
        <pt x="444" y="500" on="1"/>
        <pt x="373" y="430" on="1"/>
        <pt x="364" y="430" on="0"/>
        <pt x="256" y="429" on="0"/>
        <pt x="219" y="429" on="1"/>
        <pt x="173" y="365" on="0"/>
        <pt x="117" y="203" on="0"/>
        <pt x="133" y="146" on="1"/>
        <pt x="148" y="92" on="0"/>
        <pt x="312" y="39" on="0"/>
        <pt x="363" y="62" on="1"/>
        <pt x="375" y="68" on="0"/>
        <pt x="387" y="77" on="1"/>
        <pt x="395" y="83" on="0"/>
        <pt x="409" y="95" on="1"/>
        <pt x="340" y="26" on="1"/>
        <pt x="313" y="2" on="0"/>
        <pt x="294" y="-7" on="1"/>
        <pt x="243" y="-30" on="0"/>
        <pt x="80" y="23" on="0"/>
        <pt x="64" y="77" on="1"/>
        <pt x="46" y="142" on="0"/>
        <pt x="122" y="330" on="0"/>
        <pt x="174" y="389" on="1"/>
        <pt x="214" y="429" on="1"/>
        <pt x="75" y="429" on="0"/>
        <pt x="51" y="430" on="1"/>
      </contour>
      <contour>
        <pt x="186" y="604" on="1"/>
        <pt x="221" y="604" on="0"/>
        <pt x="362" y="606" on="0"/>
        <pt x="398" y="606" on="1"/>
        <pt x="345" y="552" on="1"/>
        <pt x="309" y="552" on="0"/>
        <pt x="168" y="550" on="0"/>
        <pt x="133" y="550" on="1"/>
      </contour>
    </TTGlyph>
    <TTGlyph name="bar" xMin="36" yMin="183" xMax="361" yMax="341">
      <contour>
        <pt x="74" y="263" on="1"/>
        <pt x="93" y="285" on="0"/>
        <pt x="209" y="335" on="0"/>
        <pt x="331" y="346" on="0"/>
        <pt x="361" y="301" on="1"/>
        <pt x="376" y="274" on="0"/>
        <pt x="358" y="246" on="1"/>
        <pt x="314" y="202" on="1"/>
        <pt x="301" y="189" on="0"/>
        <pt x="260" y="183" on="1"/>
        <pt x="226" y="178" on="0"/>
        <pt x="229" y="194" on="1"/>
        <pt x="229" y="196" on="0"/>
        <pt x="230" y="197" on="1"/>
        <pt x="274" y="241" on="1"/>
        <pt x="269" y="228" on="0"/>
        <pt x="303" y="225" on="0"/>
        <pt x="323" y="231" on="1"/>
        <pt x="323" y="246" on="0"/>
        <pt x="317" y="257" on="1"/>
        <pt x="290" y="301" on="0"/>
        <pt x="173" y="293" on="0"/>
        <pt x="63" y="248" on="0"/>
        <pt x="36" y="225" on="1"/>
      </contour>
    </TTGlyph>
    <TTGlyph name="bracketleft" xMin="84" yMin="-58" xMax="262" yMax="602">
      <contour>
        <pt x="217" y="602" on="1"/>
        <pt x="172" y="536" on="0"/>
        <pt x="119" y="323" on="0"/>
        <pt x="133" y="100" on="0"/>
        <pt x="179" y="38" on="1"/>
        <pt x="202" y="8" on="0"/>
        <pt x="262" y="-16" on="1"/>
        <pt x="220" y="-58" on="1"/>
        <pt x="162" y="-37" on="0"/>
        <pt x="137" y="-4" on="1"/>
        <pt x="91" y="58" on="0"/>
        <pt x="77" y="280" on="0"/>
        <pt x="130" y="494" on="0"/>
        <pt x="175" y="560" on="1"/>
      </contour>
    </TTGlyph>
    <TTGlyph name="c" xMin="87" yMin="-82" xMax="521" yMax="468">
      <contour>
        <pt x="173" y="460" on="1"/>
        <pt x="340" y="550" on="0"/>
        <pt x="386" y="468" on="1"/>
        <pt x="421" y="406" on="0"/>
        <pt x="374" y="279" on="1"/>
        <pt x="327" y="155" on="0"/>
        <pt x="244" y="78" on="1"/>
        <pt x="232" y="66" on="0"/>
        <pt x="219" y="57" on="1"/>
        <pt x="250" y="62" on="0"/>
        <pt x="271" y="57" on="1"/>
        <pt x="295" y="51" on="0"/>
        <pt x="350" y="21" on="0"/>
        <pt x="394" y="-5" on="0"/>
        <pt x="442" y="-27" on="0"/>
        <pt x="494" y="-26" on="0"/>
        <pt x="521" y="-11" on="1"/>
        <pt x="461" y="-66" on="1"/>
        <pt x="434" y="-81" on="0"/>
        <pt x="381" y="-82" on="0"/>
        <pt x="333" y="-61" on="0"/>
        <pt x="289" y="-35" on="0"/>
        <pt x="234" y="-5" on="0"/>
        <pt x="210" y="1" on="1"/>
        <pt x="190" y="7" on="0"/>
        <pt x="105" y="-7" on="0"/>
        <pt x="87" y="-2" on="1"/>
        <pt x="117" y="26" on="1"/>
        <pt x="116" y="26" on="0"/>
        <pt x="114" y="26" on="1"/>
        <pt x="125" y="34" on="1"/>
        <pt x="147" y="54" on="1"/>
        <pt x="149" y="54" on="0"/>
        <pt x="150" y="53" on="1"/>
        <pt x="239" y="132" on="0"/>
        <pt x="349" y="374" on="0"/>
        <pt x="319" y="427" on="1"/>
        <pt x="285" y="489" on="0"/>
        <pt x="146" y="415" on="1"/>
      </contour>
    </TTGlyph>
    <TTGlyph name="colon" xMin="48" yMin="394" xMax="330" yMax="534">
      <contour>
        <pt x="118" y="528" on="1"/>
        <pt x="153" y="487" on="0"/>
        <pt x="183" y="464" on="1"/>
        <pt x="113" y="394" on="1"/>
        <pt x="78" y="420" on="0"/>
        <pt x="48" y="458" on="1"/>
      </contour>
      <contour>
        <pt x="272" y="534" on="1"/>
        <pt x="307" y="479" on="0"/>
        <pt x="330" y="464" on="1"/>
        <pt x="260" y="394" on="1"/>
        <pt x="233" y="409" on="0"/>
        <pt x="202" y="464" on="1"/>
      </contour>
    </TTGlyph>
    <TTGlyph name="dollar" xMin="47" yMin="1" xMax="219" yMax="522">
      <contour>
        <pt x="98" y="517" on="1"/>
        <pt x="102" y="461" on="0"/>
        <pt x="102" y="53" on="1"/>
        <pt x="52" y="3" on="1"/>
        <pt x="52" y="408" on="0"/>
        <pt x="47" y="467" on="1"/>
      </contour>
      <contour>
        <pt x="217" y="522" on="1"/>
        <pt x="219" y="457" on="0"/>
        <pt x="219" y="73" on="0"/>
        <pt x="218" y="52" on="1"/>
        <pt x="168" y="1" on="1"/>
        <pt x="169" y="23" on="0"/>
        <pt x="169" y="406" on="0"/>
        <pt x="167" y="472" on="1"/>
      </contour>
    </TTGlyph>
    <TTGlyph name="e" xMin="60" yMin="-8" xMax="451" yMax="508">
      <contour>
        <pt x="149" y="298" on="1"/>
        <pt x="357" y="298" on="1"/>
        <pt x="357" y="428" on="0"/>
        <pt x="352" y="433" on="1"/>
        <pt x="342" y="441" on="0"/>
        <pt x="325" y="437" on="1"/>
        <pt x="395" y="508" on="1"/>
        <pt x="412" y="512" on="0"/>
        <pt x="422" y="503" on="1"/>
        <pt x="428" y="499" on="0"/>
        <pt x="428" y="159" on="1"/>
        <pt x="428" y="157" on="0"/>
        <pt x="425" y="128" on="0"/>
        <pt x="424" y="101" on="0"/>
        <pt x="426" y="73" on="0"/>
        <pt x="439" y="59" on="0"/>
        <pt x="451" y="62" on="1"/>
        <pt x="380" y="-8" on="1"/>
        <pt x="368" y="-11" on="0"/>
        <pt x="355" y="3" on="0"/>
        <pt x="353" y="31" on="0"/>
        <pt x="354" y="57" on="0"/>
        <pt x="357" y="86" on="0"/>
        <pt x="357" y="89" on="1"/>
        <pt x="357" y="91" on="0"/>
        <pt x="358" y="213" on="0"/>
        <pt x="358" y="258" on="1"/>
        <pt x="148" y="258" on="1"/>
        <pt x="148" y="230" on="0"/>
        <pt x="147" y="161" on="0"/>
        <pt x="147" y="157" on="0"/>
        <pt x="145" y="128" on="0"/>
        <pt x="145" y="101" on="0"/>
        <pt x="146" y="73" on="0"/>
        <pt x="153" y="59" on="0"/>
        <pt x="159" y="62" on="1"/>
        <pt x="89" y="-8" on="1"/>
        <pt x="83" y="-11" on="0"/>
        <pt x="76" y="3" on="0"/>
        <pt x="75" y="31" on="0"/>
        <pt x="75" y="58" on="0"/>
        <pt x="77" y="86" on="0"/>
        <pt x="77" y="89" on="1"/>
        <pt x="77" y="428" on="0"/>
        <pt x="74" y="433" on="1"/>
        <pt x="69" y="441" on="0"/>
        <pt x="60" y="437" on="1"/>
        <pt x="130" y="508" on="1"/>
        <pt x="139" y="511" on="0"/>
        <pt x="144" y="503" on="1"/>
        <pt x="148" y="498" on="0"/>
        <pt x="148" y="297" on="1"/>
      </contour>
    </TTGlyph>
    <TTGlyph name="eacute" xMin="60" yMin="-8" xMax="451" yMax="615">
      <contour>
        <pt x="176" y="613" on="1"/>
        <pt x="214" y="613" on="0"/>
        <pt x="362" y="615" on="0"/>
        <pt x="400" y="615" on="1"/>
        <pt x="347" y="562" on="1"/>
        <pt x="309" y="562" on="0"/>
        <pt x="160" y="560" on="0"/>
        <pt x="123" y="560" on="1"/>
      </contour>
      <contour>
        <pt x="149" y="298" on="1"/>
        <pt x="357" y="298" on="1"/>
        <pt x="357" y="428" on="0"/>
        <pt x="352" y="433" on="1"/>
        <pt x="342" y="441" on="0"/>
        <pt x="325" y="437" on="1"/>
        <pt x="395" y="508" on="1"/>
        <pt x="412" y="512" on="0"/>
        <pt x="422" y="503" on="1"/>
        <pt x="428" y="499" on="0"/>
        <pt x="428" y="159" on="1"/>
        <pt x="428" y="157" on="0"/>
        <pt x="425" y="128" on="0"/>
        <pt x="424" y="101" on="0"/>
        <pt x="426" y="73" on="0"/>
        <pt x="439" y="59" on="0"/>
        <pt x="451" y="62" on="1"/>
        <pt x="380" y="-8" on="1"/>
        <pt x="368" y="-11" on="0"/>
        <pt x="355" y="3" on="0"/>
        <pt x="353" y="31" on="0"/>
        <pt x="354" y="57" on="0"/>
        <pt x="357" y="86" on="0"/>
        <pt x="357" y="89" on="1"/>
        <pt x="357" y="91" on="0"/>
        <pt x="358" y="213" on="0"/>
        <pt x="358" y="258" on="1"/>
        <pt x="148" y="258" on="1"/>
        <pt x="148" y="230" on="0"/>
        <pt x="147" y="161" on="0"/>
        <pt x="147" y="157" on="0"/>
        <pt x="145" y="128" on="0"/>
        <pt x="145" y="101" on="0"/>
        <pt x="146" y="73" on="0"/>
        <pt x="153" y="59" on="0"/>
        <pt x="159" y="62" on="1"/>
        <pt x="89" y="-8" on="1"/>
        <pt x="83" y="-11" on="0"/>
        <pt x="76" y="3" on="0"/>
        <pt x="75" y="31" on="0"/>
        <pt x="75" y="58" on="0"/>
        <pt x="77" y="86" on="0"/>
        <pt x="77" y="89" on="1"/>
        <pt x="77" y="428" on="0"/>
        <pt x="74" y="433" on="1"/>
        <pt x="69" y="441" on="0"/>
        <pt x="60" y="437" on="1"/>
        <pt x="130" y="508" on="1"/>
        <pt x="139" y="511" on="0"/>
        <pt x="144" y="503" on="1"/>
        <pt x="148" y="498" on="0"/>
        <pt x="148" y="297" on="1"/>
      </contour>
    </TTGlyph>
    <TTGlyph name="edieresis" xMin="41" yMin="-218" xMax="693" yMax="822">
      <contour>
        <pt x="367" y="821" on="1"/>
        <pt x="384" y="831" on="0"/>
        <pt x="388" y="822" on="1"/>
        <pt x="405" y="782" on="0"/>
        <pt x="392" y="57" on="1"/>
        <pt x="486" y="70" on="0"/>
        <pt x="552" y="116" on="1"/>
        <pt x="575" y="146" on="0"/>
        <pt x="590" y="171" on="1"/>
        <pt x="612" y="209" on="0"/>
        <pt x="632" y="310" on="0"/>
        <pt x="602" y="410" on="0"/>
        <pt x="554" y="426" on="1"/>
        <pt x="625" y="497" on="1"/>
        <pt x="672" y="481" on="0"/>
        <pt x="703" y="381" on="0"/>
        <pt x="683" y="279" on="0"/>
        <pt x="661" y="241" on="1"/>
        <pt x="643" y="212" on="0"/>
        <pt x="589" y="145" on="1"/>
        <pt x="518" y="74" on="1"/>
        <pt x="462" y="24" on="0"/>
        <pt x="391" y="1" on="1"/>
        <pt x="389" y="-145" on="0"/>
        <pt x="389" y="-147" on="1"/>
        <pt x="318" y="-218" on="1"/>
        <pt x="318" y="-208" on="0"/>
        <pt x="319" y="-150" on="0"/>
        <pt x="321" y="-57" on="0"/>
        <pt x="321" y="-14" on="1"/>
        <pt x="317" y="-14" on="0"/>
        <pt x="314" y="-15" on="1"/>
        <pt x="236" y="-25" on="0"/>
        <pt x="101" y="64" on="0"/>
        <pt x="32" y="213" on="0"/>
        <pt x="41" y="291" on="1"/>
        <pt x="46" y="337" on="0"/>
        <pt x="72" y="397" on="0"/>
        <pt x="103" y="433" on="1"/>
        <pt x="174" y="503" on="1"/>
        <pt x="143" y="468" on="0"/>
        <pt x="117" y="408" on="0"/>
        <pt x="112" y="362" on="1"/>
        <pt x="100" y="258" on="0"/>
        <pt x="224" y="74" on="0"/>
        <pt x="323" y="57" on="1"/>
        <pt x="333" y="716" on="0"/>
        <pt x="317" y="751" on="1"/>
        <pt x="312" y="763" on="0"/>
        <pt x="296" y="750" on="1"/>
      </contour>
    </TTGlyph>
    <TTGlyph name="eight" xMin="43" yMin="205" xMax="610" yMax="350">
      <contour>
        <pt x="162" y="345" on="1"/>
        <pt x="165" y="332" on="0"/>
        <pt x="376" y="343" on="0"/>
        <pt x="562" y="357" on="0"/>
        <pt x="591" y="343" on="1"/>
        <pt x="548" y="301" on="1"/>
        <pt x="534" y="315" on="0"/>
        <pt x="119" y="287" on="0"/>
        <pt x="119" y="302" on="1"/>
      </contour>
      <contour>
        <pt x="85" y="288" on="1"/>
        <pt x="93" y="255" on="0"/>
        <pt x="236" y="240" on="0"/>
        <pt x="410" y="259" on="0"/>
        <pt x="577" y="267" on="0"/>
        <pt x="610" y="256" on="1"/>
        <pt x="567" y="213" on="1"/>
        <pt x="534" y="224" on="0"/>
        <pt x="367" y="217" on="0"/>
        <pt x="194" y="197" on="0"/>
        <pt x="51" y="213" on="0"/>
        <pt x="43" y="246" on="1"/>
      </contour>
    </TTGlyph>
    <TTGlyph name="five" xMin="48" yMin="113" xMax="588" yMax="430">
      <contour>
        <pt x="91" y="317" on="1"/>
        <pt x="88" y="304" on="0"/>
        <pt x="108" y="286" on="0"/>
        <pt x="148" y="278" on="0"/>
        <pt x="203" y="275" on="0"/>
        <pt x="235" y="277" on="1"/>
        <pt x="216" y="354" on="0"/>
        <pt x="229" y="387" on="1"/>
        <pt x="272" y="430" on="1"/>
        <pt x="253" y="385" on="0"/>
        <pt x="289" y="280" on="1"/>
        <pt x="310" y="282" on="0"/>
        <pt x="407" y="290" on="0"/>
        <pt x="459" y="294" on="0"/>
        <pt x="529" y="297" on="0"/>
        <pt x="575" y="292" on="0"/>
        <pt x="588" y="287" on="1"/>
        <pt x="545" y="244" on="1"/>
        <pt x="531" y="250" on="0"/>
        <pt x="485" y="255" on="0"/>
        <pt x="403" y="250" on="0"/>
        <pt x="359" y="247" on="0"/>
        <pt x="303" y="242" on="1"/>
        <pt x="324" y="191" on="0"/>
        <pt x="372" y="139" on="0"/>
        <pt x="391" y="155" on="1"/>
        <pt x="348" y="113" on="1"/>
        <pt x="326" y="94" on="0"/>
        <pt x="268" y="172" on="0"/>
        <pt x="246" y="238" on="1"/>
        <pt x="199" y="235" on="0"/>
        <pt x="134" y="233" on="0"/>
        <pt x="73" y="239" on="0"/>
        <pt x="45" y="258" on="0"/>
        <pt x="48" y="275" on="1"/>
      </contour>
    </TTGlyph>
    <TTGlyph name="four" xMin="48" yMin="234" xMax="588" yMax="317">
      <contour>
        <pt x="91" y="317" on="1"/>
        <pt x="88" y="298" on="0"/>
        <pt x="129" y="278" on="0"/>
        <pt x="205" y="275" on="0"/>
        <pt x="298" y="280" on="0"/>
        <pt x="401" y="290" on="0"/>
        <pt x="493" y="296" on="0"/>
        <pt x="570" y="294" on="0"/>
        <pt x="588" y="287" on="1"/>
        <pt x="545" y="244" on="1"/>
        <pt x="527" y="252" on="0"/>
        <pt x="450" y="254" on="0"/>
        <pt x="358" y="247" on="0"/>
        <pt x="255" y="238" on="0"/>
        <pt x="162" y="233" on="0"/>
        <pt x="86" y="236" on="0"/>
        <pt x="45" y="256" on="0"/>
        <pt x="48" y="275" on="1"/>
      </contour>
    </TTGlyph>
    <TTGlyph name="g" xMin="51" yMin="-13" xMax="411" yMax="506">
      <contour>
        <pt x="409" y="505" on="1"/>
        <pt x="411" y="494" on="0"/>
        <pt x="411" y="478" on="1"/>
        <pt x="343" y="410" on="1"/>
        <pt x="343" y="431" on="0"/>
        <pt x="342" y="436" on="1"/>
        <pt x="339" y="434" on="1"/>
        <pt x="318" y="434" on="0"/>
        <pt x="171" y="432" on="0"/>
        <pt x="130" y="433" on="1"/>
        <pt x="135" y="324" on="0"/>
        <pt x="135" y="54" on="1"/>
        <pt x="68" y="-13" on="1"/>
        <pt x="68" y="375" on="0"/>
        <pt x="56" y="435" on="1"/>
        <pt x="51" y="435" on="1"/>
        <pt x="52" y="436" on="0"/>
        <pt x="54" y="438" on="0"/>
        <pt x="55" y="438" on="1"/>
        <pt x="55" y="439" on="1"/>
        <pt x="122" y="506" on="1"/>
        <pt x="123" y="505" on="0"/>
        <pt x="123" y="502" on="1"/>
        <pt x="146" y="501" on="0"/>
        <pt x="405" y="501" on="1"/>
      </contour>
    </TTGlyph>
    <TTGlyph name="h" xMin="52" yMin="-205" xMax="407" yMax="509">
      <contour>
        <pt x="256" y="231" on="1"/>
        <pt x="277" y="280" on="0"/>
        <pt x="317" y="380" on="0"/>
        <pt x="326" y="405" on="1"/>
        <pt x="336" y="430" on="1"/>
        <pt x="286" y="431" on="0"/>
        <pt x="181" y="426" on="1"/>
        <pt x="192" y="355" on="0"/>
      </contour>
      <contour>
        <pt x="131" y="504" on="1"/>
        <pt x="227" y="510" on="0"/>
        <pt x="350" y="508" on="0"/>
        <pt x="378" y="504" on="1"/>
        <pt x="407" y="500" on="1"/>
        <pt x="347" y="352" on="0"/>
        <pt x="278" y="189" on="1"/>
        <pt x="319" y="117" on="0"/>
        <pt x="354" y="70" on="1"/>
        <pt x="389" y="25" on="0"/>
        <pt x="399" y="34" on="1"/>
        <pt x="347" y="-19" on="1"/>
        <pt x="338" y="-28" on="0"/>
        <pt x="280" y="45" on="0"/>
        <pt x="244" y="106" on="1"/>
        <pt x="161" y="-90" on="0"/>
        <pt x="121" y="-178" on="1"/>
        <pt x="72" y="-205" on="1"/>
        <pt x="108" y="-167" on="0"/>
        <pt x="149" y="-51" on="1"/>
        <pt x="207" y="118" on="0"/>
        <pt x="220" y="148" on="1"/>
        <pt x="172" y="236" on="0"/>
        <pt x="117" y="392" on="0"/>
        <pt x="132" y="421" on="1"/>
        <pt x="135" y="424" on="1"/>
        <pt x="100" y="421" on="0"/>
        <pt x="52" y="418" on="1"/>
      </contour>
      <contour>
        <pt x="399" y="34" on="1"/>
        <pt x="399" y="34" on="0"/>
        <pt x="399" y="34" on="1"/>
      </contour>
    </TTGlyph>
    <TTGlyph name="hyphen" xMin="30" yMin="-149" xMax="554" yMax="791">
      <contour>
        <pt x="96" y="475" on="1"/>
        <pt x="172" y="547" on="0"/>
        <pt x="241" y="482" on="1"/>
        <pt x="253" y="618" on="0"/>
        <pt x="311" y="689" on="1"/>
        <pt x="377" y="756" on="1"/>
        <pt x="414" y="790" on="0"/>
        <pt x="480" y="791" on="1"/>
        <pt x="543" y="792" on="0"/>
        <pt x="554" y="759" on="1"/>
        <pt x="559" y="745" on="0"/>
        <pt x="550" y="726" on="1"/>
        <pt x="483" y="660" on="1"/>
        <pt x="505" y="706" on="0"/>
        <pt x="401" y="735" on="0"/>
        <pt x="348" y="712" on="1"/>
        <pt x="319" y="655" on="0"/>
        <pt x="301" y="487" on="0"/>
        <pt x="305" y="320" on="0"/>
        <pt x="301" y="150" on="0"/>
        <pt x="253" y="-13" on="0"/>
        <pt x="200" y="-70" on="1"/>
        <pt x="134" y="-136" on="1"/>
        <pt x="123" y="-147" on="0"/>
        <pt x="45" y="-143" on="0"/>
        <pt x="30" y="-149" on="1"/>
        <pt x="97" y="-83" on="1"/>
        <pt x="105" y="-78" on="0"/>
        <pt x="132" y="-77" on="0"/>
        <pt x="167" y="-80" on="0"/>
        <pt x="176" y="-79" on="1"/>
        <pt x="199" y="-40" on="0"/>
        <pt x="226" y="49" on="0"/>
        <pt x="236" y="159" on="0"/>
        <pt x="239" y="236" on="0"/>
        <pt x="237" y="372" on="0"/>
        <pt x="237" y="401" on="1"/>
        <pt x="234" y="404" on="0"/>
        <pt x="203" y="437" on="0"/>
        <pt x="186" y="452" on="0"/>
        <pt x="150" y="473" on="0"/>
        <pt x="120" y="472" on="0"/>
        <pt x="77" y="454" on="0"/>
        <pt x="55" y="433" on="1"/>
      </contour>
    </TTGlyph>
    <TTGlyph name="i" xMin="60" yMin="-8" xMax="159" yMax="508">
      <contour>
        <pt x="130" y="508" on="1"/>
        <pt x="139" y="511" on="0"/>
        <pt x="144" y="503" on="1"/>
        <pt x="147" y="499" on="0"/>
        <pt x="147" y="159" on="1"/>
        <pt x="147" y="157" on="0"/>
        <pt x="145" y="128" on="0"/>
        <pt x="145" y="101" on="0"/>
        <pt x="146" y="73" on="0"/>
        <pt x="153" y="59" on="0"/>
        <pt x="159" y="62" on="1"/>
        <pt x="89" y="-8" on="1"/>
        <pt x="83" y="-11" on="0"/>
        <pt x="76" y="3" on="0"/>
        <pt x="75" y="31" on="0"/>
        <pt x="75" y="58" on="0"/>
        <pt x="77" y="86" on="0"/>
        <pt x="77" y="89" on="1"/>
        <pt x="77" y="428" on="0"/>
        <pt x="74" y="433" on="1"/>
        <pt x="69" y="441" on="0"/>
        <pt x="60" y="437" on="1"/>
      </contour>
    </TTGlyph>
    <TTGlyph name="iacute" xMin="28" yMin="-7" xMax="248" yMax="615">
      <contour>
        <pt x="81" y="613" on="1"/>
        <pt x="108" y="613" on="0"/>
        <pt x="220" y="615" on="0"/>
        <pt x="248" y="615" on="1"/>
        <pt x="195" y="562" on="1"/>
        <pt x="167" y="562" on="0"/>
        <pt x="55" y="560" on="0"/>
        <pt x="28" y="560" on="1"/>
      </contour>
      <contour>
        <pt x="140" y="507" on="1"/>
        <pt x="149" y="510" on="0"/>
        <pt x="154" y="503" on="1"/>
        <pt x="157" y="499" on="0"/>
        <pt x="157" y="160" on="1"/>
        <pt x="157" y="158" on="0"/>
        <pt x="155" y="129" on="0"/>
        <pt x="155" y="103" on="0"/>
        <pt x="156" y="75" on="0"/>
        <pt x="163" y="61" on="0"/>
        <pt x="169" y="64" on="1"/>
        <pt x="99" y="-7" on="1"/>
        <pt x="93" y="-10" on="0"/>
        <pt x="86" y="4" on="0"/>
        <pt x="85" y="32" on="0"/>
        <pt x="85" y="59" on="0"/>
        <pt x="87" y="87" on="0"/>
        <pt x="87" y="90" on="1"/>
        <pt x="87" y="427" on="0"/>
        <pt x="84" y="432" on="1"/>
        <pt x="79" y="440" on="0"/>
        <pt x="70" y="437" on="1"/>
      </contour>
    </TTGlyph>
    <TTGlyph name="j" xMin="16" yMin="-230" xMax="147" yMax="510">
      <contour>
        <pt x="139" y="509" on="1"/>
        <pt x="143" y="512" on="0"/>
        <pt x="147" y="507" on="0"/>
        <pt x="147" y="503" on="0"/>
        <pt x="147" y="499" on="1"/>
        <pt x="147" y="498" on="0"/>
        <pt x="147" y="497" on="1"/>
        <pt x="147" y="6" on="0"/>
        <pt x="140" y="-87" on="1"/>
        <pt x="140" y="-96" on="0"/>
        <pt x="118" y="-161" on="1"/>
        <pt x="49" y="-230" on="1"/>
        <pt x="50" y="-226" on="0"/>
        <pt x="64" y="-190" on="0"/>
        <pt x="71" y="-165" on="0"/>
        <pt x="72" y="-155" on="1"/>
        <pt x="79" y="-63" on="0"/>
        <pt x="79" y="429" on="1"/>
        <pt x="79" y="439" on="0"/>
        <pt x="76" y="441" on="1"/>
        <pt x="16" y="380" on="1"/>
        <pt x="30" y="395" on="0"/>
        <pt x="38" y="405" on="1"/>
        <pt x="54" y="422" on="1"/>
        <pt x="66" y="434" on="0"/>
        <pt x="71" y="440" on="1"/>
      </contour>
    </TTGlyph>
    <TTGlyph name="k" xMin="59" yMin="-1" xMax="573" yMax="758">
      <contour>
        <pt x="139" y="735" on="1"/>
        <pt x="140" y="736" on="0"/>
        <pt x="149" y="744" on="0"/>
        <pt x="155" y="749" on="0"/>
        <pt x="165" y="756" on="0"/>
        <pt x="174" y="759" on="0"/>
        <pt x="178" y="758" on="1"/>
        <pt x="189" y="756" on="0"/>
        <pt x="220" y="706" on="0"/>
        <pt x="255" y="630" on="0"/>
        <pt x="256" y="628" on="1"/>
        <pt x="274" y="594" on="0"/>
        <pt x="336" y="446" on="1"/>
        <pt x="337" y="447" on="1"/>
        <pt x="337" y="446" on="1"/>
        <pt x="422" y="237" on="0"/>
        <pt x="444" y="201" on="1"/>
        <pt x="446" y="197" on="0"/>
        <pt x="457" y="177" on="0"/>
        <pt x="468" y="158" on="0"/>
        <pt x="483" y="132" on="0"/>
        <pt x="498" y="111" on="0"/>
        <pt x="515" y="89" on="0"/>
        <pt x="532" y="74" on="0"/>
        <pt x="549" y="65" on="0"/>
        <pt x="566" y="66" on="0"/>
        <pt x="573" y="72" on="1"/>
        <pt x="508" y="7" on="1"/>
        <pt x="500" y="1" on="0"/>
        <pt x="483" y="0" on="0"/>
        <pt x="466" y="9" on="0"/>
        <pt x="449" y="24" on="0"/>
        <pt x="433" y="46" on="0"/>
        <pt x="418" y="67" on="0"/>
        <pt x="403" y="93" on="0"/>
        <pt x="392" y="112" on="0"/>
        <pt x="381" y="132" on="0"/>
        <pt x="379" y="136" on="1"/>
        <pt x="359" y="168" on="0"/>
        <pt x="293" y="330" on="1"/>
        <pt x="197" y="120" on="0"/>
        <pt x="176" y="79" on="1"/>
        <pt x="154" y="34" on="0"/>
        <pt x="134" y="2" on="1"/>
        <pt x="59" y="-1" on="1"/>
        <pt x="80" y="32" on="0"/>
        <pt x="94" y="53" on="1"/>
        <pt x="109" y="77" on="1"/>
        <pt x="214" y="239" on="0"/>
        <pt x="249" y="312" on="1"/>
        <pt x="257" y="328" on="0"/>
        <pt x="264" y="366" on="0"/>
        <pt x="271" y="381" on="1"/>
        <pt x="209" y="527" on="0"/>
        <pt x="191" y="563" on="1"/>
        <pt x="189" y="566" on="0"/>
        <pt x="155" y="640" on="0"/>
        <pt x="124" y="691" on="0"/>
        <pt x="112" y="693" on="1"/>
        <pt x="108" y="694" on="0"/>
        <pt x="99" y="691" on="0"/>
        <pt x="90" y="684" on="0"/>
        <pt x="84" y="679" on="0"/>
        <pt x="75" y="671" on="0"/>
        <pt x="74" y="670" on="1"/>
      </contour>
    </TTGlyph>
    <TTGlyph name="l" xMin="88" yMin="-7" xMax="414" yMax="509">
      <contour>
        <pt x="414" y="463" on="1"/>
        <pt x="345" y="394" on="1"/>
        <pt x="345" y="415" on="0"/>
        <pt x="306" y="440" on="0"/>
        <pt x="258" y="439" on="0"/>
        <pt x="239" y="434" on="1"/>
        <pt x="226" y="429" on="0"/>
        <pt x="216" y="422" on="1"/>
        <pt x="173" y="356" on="0"/>
        <pt x="128" y="183" on="0"/>
        <pt x="150" y="128" on="1"/>
        <pt x="166" y="88" on="0"/>
        <pt x="290" y="44" on="0"/>
        <pt x="358" y="67" on="1"/>
        <pt x="389" y="80" on="0"/>
        <pt x="401" y="90" on="1"/>
        <pt x="400" y="89" on="0"/>
        <pt x="398" y="84" on="0"/>
        <pt x="397" y="83" on="1"/>
        <pt x="367" y="24" on="1"/>
        <pt x="364" y="17" on="0"/>
        <pt x="354" y="7" on="0"/>
        <pt x="340" y="1" on="0"/>
        <pt x="329" y="-3" on="0"/>
        <pt x="311" y="-6" on="0"/>
        <pt x="303" y="-6" on="0"/>
        <pt x="285" y="-7" on="0"/>
        <pt x="284" y="-7" on="1"/>
        <pt x="260" y="-8" on="0"/>
        <pt x="214" y="-2" on="0"/>
        <pt x="150" y="17" on="0"/>
        <pt x="99" y="65" on="0"/>
        <pt x="88" y="101" on="1"/>
        <pt x="68" y="166" on="0"/>
        <pt x="124" y="333" on="0"/>
        <pt x="174" y="389" on="1"/>
        <pt x="243" y="458" on="1"/>
        <pt x="282" y="493" on="0"/>
        <pt x="308" y="503" on="1"/>
        <pt x="327" y="508" on="0"/>
        <pt x="375" y="509" on="0"/>
        <pt x="414" y="484" on="0"/>
      </contour>
    </TTGlyph>
    <TTGlyph name="m" xMin="45" yMin="-74" xMax="730" yMax="499">
      <contour>
        <pt x="303" y="82" on="1"/>
        <pt x="324" y="96" on="0"/>
        <pt x="339" y="118" on="1"/>
      </contour>
      <contour>
        <pt x="516" y="429" on="1"/>
        <pt x="550" y="474" on="0"/>
        <pt x="635" y="487" on="0"/>
        <pt x="702" y="433" on="0"/>
        <pt x="713" y="386" on="1"/>
        <pt x="727" y="329" on="0"/>
        <pt x="732" y="182" on="0"/>
        <pt x="696" y="29" on="0"/>
        <pt x="657" y="-8" on="1"/>
        <pt x="572" y="-74" on="1"/>
        <pt x="612" y="-37" on="0"/>
        <pt x="657" y="115" on="0"/>
        <pt x="657" y="257" on="0"/>
        <pt x="646" y="316" on="1"/>
        <pt x="632" y="373" on="0"/>
        <pt x="541" y="424" on="0"/>
        <pt x="493" y="398" on="1"/>
        <pt x="475" y="373" on="0"/>
        <pt x="451" y="315" on="0"/>
        <pt x="438" y="273" on="0"/>
        <pt x="432" y="196" on="0"/>
        <pt x="431" y="167" on="0"/>
        <pt x="432" y="71" on="0"/>
        <pt x="432" y="61" on="1"/>
        <pt x="362" y="-10" on="1"/>
        <pt x="362" y="-5" on="0"/>
        <pt x="358" y="137" on="1"/>
        <pt x="340" y="119" on="1"/>
        <pt x="340" y="120" on="1"/>
        <pt x="277" y="56" on="1"/>
        <pt x="284" y="63" on="0"/>
        <pt x="288" y="68" on="1"/>
        <pt x="270" y="49" on="1"/>
        <pt x="274" y="53" on="0"/>
        <pt x="277" y="56" on="1"/>
        <pt x="273" y="53" on="0"/>
        <pt x="270" y="49" on="1"/>
        <pt x="243" y="3" on="0"/>
        <pt x="136" y="-15" on="0"/>
        <pt x="47" y="55" on="0"/>
        <pt x="45" y="122" on="1"/>
        <pt x="43" y="178" on="0"/>
        <pt x="59" y="298" on="0"/>
        <pt x="118" y="431" on="0"/>
        <pt x="165" y="461" on="1"/>
        <pt x="217" y="498" on="1"/>
        <pt x="178" y="443" on="0"/>
        <pt x="114" y="261" on="0"/>
        <pt x="115" y="193" on="1"/>
        <pt x="117" y="138" on="0"/>
        <pt x="180" y="69" on="0"/>
        <pt x="260" y="62" on="0"/>
        <pt x="298" y="79" on="1"/>
        <pt x="312" y="97" on="0"/>
        <pt x="318" y="112" on="1"/>
        <pt x="342" y="169" on="0"/>
        <pt x="354" y="292" on="1"/>
        <pt x="352" y="417" on="0"/>
        <pt x="357" y="429" on="1"/>
        <pt x="427" y="499" on="1"/>
        <pt x="435" y="452" on="0"/>
        <pt x="425" y="363" on="1"/>
        <pt x="425" y="342" on="0"/>
        <pt x="426" y="332" on="1"/>
        <pt x="430" y="337" on="0"/>
        <pt x="440" y="349" on="1"/>
        <pt x="453" y="363" on="1"/>
        <pt x="453" y="362" on="0"/>
        <pt x="452" y="362" on="1"/>
        <pt x="454" y="363" on="0"/>
        <pt x="454" y="364" on="1"/>
        <pt x="481" y="390" on="1"/>
        <pt x="479" y="389" on="0"/>
        <pt x="478" y="388" on="1"/>
      </contour>
      <contour>
        <pt x="478" y="388" on="1"/>
        <pt x="477" y="387" on="0"/>
        <pt x="476" y="386" on="1"/>
      </contour>
      <contour>
        <pt x="476" y="386" on="1"/>
        <pt x="463" y="376" on="0"/>
        <pt x="453" y="363" on="1"/>
        <pt x="454" y="364" on="1"/>
      </contour>
    </TTGlyph>
    <TTGlyph name="n" xMin="52" yMin="-28" xMax="507" yMax="512">
      <contour>
        <pt x="370" y="131" on="1"/>
        <pt x="364" y="125" on="1"/>
        <pt x="360" y="121" on="0"/>
        <pt x="358" y="118" on="1"/>
        <pt x="333" y="93" on="1"/>
        <pt x="358" y="93" on="0"/>
        <pt x="408" y="68" on="0"/>
        <pt x="438" y="45" on="0"/>
        <pt x="485" y="36" on="0"/>
        <pt x="507" y="51" on="1"/>
        <pt x="439" y="-17" on="1"/>
        <pt x="414" y="-30" on="0"/>
        <pt x="382" y="-26" on="0"/>
        <pt x="344" y="-7" on="0"/>
        <pt x="313" y="15" on="0"/>
        <pt x="264" y="27" on="0"/>
        <pt x="238" y="22" on="1"/>
        <pt x="227" y="16" on="0"/>
        <pt x="227" y="19" on="1"/>
        <pt x="295" y="87" on="1"/>
        <pt x="301" y="90" on="0"/>
        <pt x="307" y="90" on="1"/>
        <pt x="316" y="94" on="0"/>
        <pt x="347" y="111" on="1"/>
        <pt x="343" y="105" on="0"/>
        <pt x="339" y="101" on="1"/>
        <pt x="352" y="114" on="1"/>
        <pt x="376" y="138" on="1"/>
        <pt x="374" y="135" on="0"/>
      </contour>
      <contour>
        <pt x="121" y="491" on="1"/>
        <pt x="143" y="506" on="0"/>
        <pt x="154" y="446" on="1"/>
        <pt x="160" y="413" on="0"/>
        <pt x="162" y="361" on="1"/>
        <pt x="181" y="396" on="0"/>
        <pt x="205" y="420" on="1"/>
        <pt x="218" y="430" on="0"/>
        <pt x="235" y="437" on="1"/>
        <pt x="214" y="400" on="0"/>
        <pt x="183" y="294" on="0"/>
        <pt x="171" y="213" on="0"/>
        <pt x="155" y="89" on="0"/>
        <pt x="151" y="64" on="1"/>
        <pt x="149" y="62" on="1"/>
        <pt x="149" y="61" on="0"/>
        <pt x="148" y="57" on="0"/>
        <pt x="148" y="56" on="1"/>
        <pt x="79" y="-13" on="1"/>
        <pt x="96" y="70" on="0"/>
        <pt x="95" y="237" on="1"/>
        <pt x="94" y="433" on="0"/>
        <pt x="58" y="426" on="1"/>
        <pt x="55" y="425" on="0"/>
        <pt x="52" y="423" on="1"/>
      </contour>
      <contour>
        <pt x="376" y="138" on="1"/>
        <pt x="382" y="144" on="1"/>
        <pt x="398" y="158" on="0"/>
        <pt x="426" y="193" on="0"/>
        <pt x="441" y="215" on="0"/>
        <pt x="471" y="261" on="0"/>
        <pt x="477" y="271" on="1"/>
        <pt x="496" y="300" on="0"/>
        <pt x="490" y="382" on="0"/>
        <pt x="447" y="453" on="0"/>
        <pt x="384" y="509" on="0"/>
        <pt x="310" y="514" on="0"/>
        <pt x="274" y="489" on="1"/>
        <pt x="235" y="437" on="1"/>
        <pt x="267" y="449" on="0"/>
        <pt x="337" y="426" on="0"/>
        <pt x="388" y="373" on="0"/>
        <pt x="425" y="302" on="0"/>
        <pt x="425" y="231" on="0"/>
        <pt x="409" y="202" on="1"/>
        <pt x="405" y="197" on="0"/>
        <pt x="361" y="128" on="0"/>
        <pt x="347" y="111" on="1"/>
        <pt x="351" y="113" on="0"/>
        <pt x="352" y="114" on="1"/>
      </contour>
    </TTGlyph>
    <TTGlyph name="nine" xMin="43" yMin="99" xMax="610" yMax="456">
      <contour>
        <pt x="85" y="288" on="1"/>
        <pt x="95" y="245" on="0"/>
        <pt x="271" y="252" on="1"/>
        <pt x="265" y="267" on="0"/>
        <pt x="255" y="297" on="1"/>
        <pt x="124" y="288" on="0"/>
        <pt x="119" y="302" on="1"/>
        <pt x="162" y="345" on="1"/>
        <pt x="165" y="334" on="0"/>
        <pt x="245" y="337" on="1"/>
        <pt x="234" y="389" on="0"/>
        <pt x="244" y="414" on="1"/>
        <pt x="286" y="456" on="1"/>
        <pt x="272" y="423" on="0"/>
        <pt x="298" y="339" on="1"/>
        <pt x="320" y="340" on="0"/>
        <pt x="421" y="347" on="0"/>
        <pt x="478" y="350" on="0"/>
        <pt x="548" y="352" on="0"/>
        <pt x="586" y="348" on="0"/>
        <pt x="591" y="343" on="1"/>
        <pt x="548" y="301" on="1"/>
        <pt x="535" y="315" on="0"/>
        <pt x="311" y="300" on="1"/>
        <pt x="323" y="270" on="0"/>
        <pt x="330" y="255" on="1"/>
        <pt x="344" y="256" on="0"/>
        <pt x="449" y="263" on="0"/>
        <pt x="488" y="265" on="0"/>
        <pt x="558" y="266" on="0"/>
        <pt x="597" y="261" on="0"/>
        <pt x="610" y="256" on="1"/>
        <pt x="567" y="213" on="1"/>
        <pt x="528" y="229" on="0"/>
        <pt x="349" y="216" on="1"/>
        <pt x="372" y="173" on="0"/>
        <pt x="414" y="130" on="0"/>
        <pt x="426" y="141" on="1"/>
        <pt x="383" y="99" on="1"/>
        <pt x="369" y="85" on="0"/>
        <pt x="314" y="154" on="0"/>
        <pt x="288" y="212" on="1"/>
        <pt x="197" y="203" on="0"/>
        <pt x="49" y="216" on="0"/>
        <pt x="43" y="246" on="1"/>
      </contour>
    </TTGlyph>
    <TTGlyph name="o" xMin="55" yMin="-16" xMax="395" yMax="486">
      <contour>
        <pt x="94" y="418" on="1"/>
        <pt x="221" y="546" on="0"/>
        <pt x="312" y="486" on="1"/>
        <pt x="376" y="444" on="0"/>
        <pt x="395" y="332" on="1"/>
        <pt x="414" y="221" on="0"/>
        <pt x="374" y="141" on="1"/>
        <pt x="368" y="129" on="0"/>
        <pt x="362" y="120" on="1"/>
        <pt x="356" y="114" on="0"/>
        <pt x="352" y="111" on="1"/>
        <pt x="354" y="112" on="0"/>
        <pt x="361" y="118" on="0"/>
        <pt x="362" y="118" on="1"/>
        <pt x="291" y="48" on="1"/>
        <pt x="262" y="23" on="0"/>
        <pt x="193" y="-11" on="0"/>
        <pt x="124" y="-20" on="0"/>
        <pt x="69" y="21" on="0"/>
        <pt x="59" y="69" on="1"/>
        <pt x="127" y="130" on="1"/>
        <pt x="128" y="83" on="0"/>
        <pt x="162" y="35" on="0"/>
        <pt x="217" y="36" on="0"/>
        <pt x="276" y="57" on="0"/>
        <pt x="308" y="78" on="1"/>
        <pt x="349" y="167" on="0"/>
        <pt x="324" y="395" on="0"/>
        <pt x="190" y="467" on="0"/>
        <pt x="55" y="346" on="1"/>
      </contour>
    </TTGlyph>
    <TTGlyph name="oacute" xMin="55" yMin="-16" xMax="395" yMax="645">
      <contour>
        <pt x="94" y="418" on="1"/>
        <pt x="221" y="546" on="0"/>
        <pt x="312" y="486" on="1"/>
        <pt x="376" y="444" on="0"/>
        <pt x="395" y="332" on="1"/>
        <pt x="414" y="221" on="0"/>
        <pt x="374" y="141" on="1"/>
        <pt x="368" y="129" on="0"/>
        <pt x="362" y="120" on="1"/>
        <pt x="356" y="114" on="0"/>
        <pt x="352" y="111" on="1"/>
        <pt x="354" y="112" on="0"/>
        <pt x="361" y="118" on="0"/>
        <pt x="362" y="118" on="1"/>
        <pt x="291" y="48" on="1"/>
        <pt x="262" y="23" on="0"/>
        <pt x="193" y="-11" on="0"/>
        <pt x="124" y="-20" on="0"/>
        <pt x="69" y="21" on="0"/>
        <pt x="59" y="69" on="1"/>
        <pt x="127" y="130" on="1"/>
        <pt x="128" y="83" on="0"/>
        <pt x="162" y="35" on="0"/>
        <pt x="217" y="36" on="0"/>
        <pt x="276" y="57" on="0"/>
        <pt x="308" y="78" on="1"/>
        <pt x="349" y="167" on="0"/>
        <pt x="324" y="395" on="0"/>
        <pt x="190" y="467" on="0"/>
        <pt x="55" y="346" on="1"/>
      </contour>
      <contour>
        <pt x="144" y="641" on="1"/>
        <pt x="183" y="641" on="0"/>
        <pt x="340" y="645" on="0"/>
        <pt x="379" y="645" on="1"/>
        <pt x="326" y="592" on="1"/>
        <pt x="287" y="592" on="0"/>
        <pt x="130" y="588" on="0"/>
        <pt x="91" y="588" on="1"/>
      </contour>
    </TTGlyph>
    <TTGlyph name="one" xMin="83" yMin="101" xMax="249" yMax="417">
      <contour>
        <pt x="130" y="417" on="1"/>
        <pt x="112" y="373" on="0"/>
        <pt x="147" y="268" on="1"/>
        <pt x="180" y="168" on="0"/>
        <pt x="218" y="143" on="1"/>
        <pt x="236" y="132" on="0"/>
        <pt x="249" y="143" on="1"/>
        <pt x="206" y="101" on="1"/>
        <pt x="177" y="76" on="0"/>
        <pt x="136" y="151" on="1"/>
        <pt x="93" y="231" on="0"/>
        <pt x="83" y="317" on="1"/>
        <pt x="79" y="355" on="0"/>
        <pt x="87" y="375" on="1"/>
      </contour>
    </TTGlyph>
    <TTGlyph name="p" xMin="50" yMin="-14" xMax="608" yMax="835">
      <contour>
        <pt x="120" y="835" on="1"/>
        <pt x="144" y="813" on="0"/>
        <pt x="136" y="379" on="1"/>
        <pt x="156" y="410" on="0"/>
        <pt x="184" y="439" on="1"/>
        <pt x="254" y="509" on="1"/>
        <pt x="269" y="522" on="0"/>
        <pt x="317" y="504" on="1"/>
        <pt x="355" y="491" on="0"/>
        <pt x="364" y="349" on="1"/>
        <pt x="386" y="397" on="0"/>
        <pt x="412" y="429" on="1"/>
        <pt x="482" y="499" on="1"/>
        <pt x="497" y="511" on="0"/>
        <pt x="571" y="508" on="0"/>
        <pt x="586" y="494" on="1"/>
        <pt x="609" y="469" on="0"/>
        <pt x="607" y="87" on="0"/>
        <pt x="589" y="57" on="1"/>
        <pt x="518" y="-14" on="1"/>
        <pt x="536" y="17" on="0"/>
        <pt x="538" y="398" on="0"/>
        <pt x="515" y="423" on="1"/>
        <pt x="495" y="442" on="0"/>
        <pt x="443" y="438" on="1"/>
        <pt x="420" y="389" on="0"/>
        <pt x="394" y="266" on="0"/>
        <pt x="375" y="109" on="0"/>
        <pt x="368" y="75" on="1"/>
        <pt x="371" y="68" on="1"/>
        <pt x="301" y="-3" on="1"/>
        <pt x="299" y="-3" on="0"/>
        <pt x="298" y="1" on="1"/>
        <pt x="297" y="0" on="1"/>
        <pt x="297" y="3" on="0"/>
        <pt x="298" y="5" on="1"/>
        <pt x="298" y="25" on="0"/>
        <pt x="297" y="158" on="0"/>
        <pt x="296" y="302" on="0"/>
        <pt x="270" y="424" on="0"/>
        <pt x="246" y="433" on="1"/>
        <pt x="221" y="443" on="0"/>
        <pt x="203" y="444" on="1"/>
        <pt x="142" y="344" on="0"/>
        <pt x="131" y="179" on="1"/>
        <pt x="128" y="85" on="0"/>
        <pt x="128" y="63" on="1"/>
        <pt x="57" y="-7" on="1"/>
        <pt x="57" y="70" on="0"/>
        <pt x="60" y="109" on="1"/>
        <pt x="78" y="738" on="0"/>
        <pt x="50" y="764" on="1"/>
      </contour>
    </TTGlyph>
    <TTGlyph name="percent" xMin="31" yMin="-115" xMax="379" yMax="649">
      <contour>
        <pt x="269" y="283" on="1"/>
        <pt x="288" y="329" on="0"/>
        <pt x="278" y="392" on="0"/>
        <pt x="250" y="431" on="0"/>
        <pt x="194" y="452" on="0"/>
        <pt x="138" y="458" on="0"/>
        <pt x="106" y="456" on="1"/>
        <pt x="113" y="380" on="0"/>
        <pt x="113" y="267" on="1"/>
        <pt x="176" y="288" on="0"/>
        <pt x="199" y="287" on="1"/>
        <pt x="258" y="285" on="0"/>
      </contour>
      <contour>
        <pt x="245" y="226" on="1"/>
        <pt x="241" y="222" on="1"/>
        <pt x="241" y="223" on="0"/>
        <pt x="243" y="227" on="1"/>
        <pt x="214" y="233" on="0"/>
        <pt x="147" y="235" on="1"/>
        <pt x="137" y="236" on="0"/>
        <pt x="114" y="231" on="1"/>
        <pt x="112" y="97" on="0"/>
        <pt x="109" y="64" on="1"/>
        <pt x="110" y="65" on="1"/>
        <pt x="123" y="62" on="0"/>
        <pt x="190" y="58" on="0"/>
        <pt x="294" y="63" on="0"/>
        <pt x="327" y="74" on="1"/>
        <pt x="335" y="102" on="0"/>
        <pt x="327" y="139" on="1"/>
        <pt x="311" y="209" on="0"/>
      </contour>
      <contour>
        <pt x="101" y="506" on="1"/>
        <pt x="137" y="514" on="0"/>
        <pt x="213" y="518" on="0"/>
        <pt x="295" y="499" on="0"/>
        <pt x="343" y="453" on="0"/>
        <pt x="338" y="353" on="0"/>
        <pt x="299" y="281" on="1"/>
        <pt x="297" y="278" on="1"/>
        <pt x="363" y="261" on="0"/>
        <pt x="379" y="191" on="1"/>
        <pt x="390" y="142" on="0"/>
        <pt x="365" y="94" on="1"/>
        <pt x="334" y="63" on="1"/>
        <pt x="304" y="31" on="1"/>
        <pt x="282" y="9" on="0"/>
        <pt x="158" y="-10" on="0"/>
        <pt x="65" y="-7" on="0"/>
        <pt x="43" y="-4" on="1"/>
        <pt x="39" y="-8" on="1"/>
        <pt x="45" y="7" on="0"/>
        <pt x="44" y="356" on="0"/>
        <pt x="31" y="435" on="1"/>
        <pt x="43" y="447" on="1"/>
        <pt x="42" y="447" on="1"/>
      </contour>
      <contour>
        <pt x="184" y="649" on="1"/>
        <pt x="198" y="639" on="0"/>
        <pt x="229" y="609" on="0"/>
        <pt x="246" y="598" on="1"/>
        <pt x="193" y="545" on="1"/>
        <pt x="176" y="556" on="0"/>
        <pt x="145" y="586" on="0"/>
        <pt x="131" y="596" on="1"/>
      </contour>
      <contour>
        <pt x="117" y="-62" on="1"/>
        <pt x="150" y="-61" on="0"/>
        <pt x="294" y="-59" on="0"/>
        <pt x="334" y="-57" on="1"/>
        <pt x="281" y="-110" on="1"/>
        <pt x="241" y="-112" on="0"/>
        <pt x="97" y="-114" on="0"/>
        <pt x="64" y="-115" on="1"/>
      </contour>
    </TTGlyph>
    <TTGlyph name="period" xMin="46" yMin="388" xMax="179" yMax="522">
      <contour>
        <pt x="116" y="522" on="1"/>
        <pt x="122" y="515" on="0"/>
        <pt x="171" y="472" on="0"/>
        <pt x="179" y="458" on="1"/>
        <pt x="109" y="388" on="1"/>
        <pt x="101" y="401" on="0"/>
        <pt x="54" y="442" on="0"/>
        <pt x="46" y="452" on="1"/>
      </contour>
    </TTGlyph>
    <TTGlyph name="q" xMin="35" yMin="-11" xMax="661" yMax="513">
      <contour>
        <pt x="597" y="418" on="1"/>
        <pt x="603" y="423" on="0"/>
        <pt x="616" y="436" on="1"/>
      </contour>
      <contour>
        <pt x="193" y="507" on="1"/>
        <pt x="107" y="419" on="0"/>
        <pt x="92" y="165" on="0"/>
        <pt x="242" y="26" on="0"/>
        <pt x="361" y="86" on="1"/>
        <pt x="374" y="111" on="0"/>
        <pt x="383" y="162" on="1"/>
        <pt x="389" y="199" on="0"/>
        <pt x="359" y="327" on="0"/>
        <pt x="292" y="436" on="0"/>
        <pt x="253" y="436" on="1"/>
        <pt x="324" y="507" on="1"/>
        <pt x="367" y="507" on="0"/>
        <pt x="404" y="439" on="1"/>
        <pt x="422" y="431" on="0"/>
        <pt x="437" y="432" on="1"/>
        <pt x="458" y="433" on="0"/>
        <pt x="475" y="447" on="1"/>
        <pt x="475" y="448" on="0"/>
        <pt x="476" y="449" on="1"/>
        <pt x="527" y="500" on="1"/>
        <pt x="518" y="442" on="0"/>
        <pt x="542" y="380" on="0"/>
        <pt x="579" y="404" on="1"/>
        <pt x="582" y="432" on="0"/>
        <pt x="586" y="443" on="1"/>
        <pt x="657" y="513" on="1"/>
        <pt x="643" y="461" on="0"/>
        <pt x="651" y="93" on="0"/>
        <pt x="661" y="60" on="1"/>
        <pt x="590" y="-11" on="1"/>
        <pt x="582" y="16" on="0"/>
        <pt x="572" y="312" on="0"/>
        <pt x="579" y="400" on="1"/>
        <pt x="564" y="385" on="1"/>
        <pt x="537" y="356" on="0"/>
        <pt x="498" y="337" on="0"/>
        <pt x="478" y="355" on="0"/>
        <pt x="470" y="393" on="0"/>
        <pt x="472" y="421" on="1"/>
        <pt x="451" y="404" on="0"/>
        <pt x="426" y="391" on="1"/>
        <pt x="463" y="292" on="0"/>
        <pt x="453" y="233" on="1"/>
        <pt x="441" y="155" on="0"/>
        <pt x="405" y="119" on="1"/>
        <pt x="334" y="48" on="1"/>
        <pt x="347" y="64" on="0"/>
        <pt x="348" y="65" on="1"/>
        <pt x="313" y="30" on="1"/>
        <pt x="187" y="-44" on="0"/>
        <pt x="106" y="35" on="1"/>
        <pt x="42" y="97" on="0"/>
        <pt x="35" y="217" on="1"/>
        <pt x="28" y="343" on="0"/>
        <pt x="90" y="429" on="1"/>
        <pt x="98" y="440" on="0"/>
        <pt x="107" y="450" on="1"/>
      </contour>
    </TTGlyph>
    <TTGlyph name="r" xMin="58" yMin="-185" xMax="369" yMax="499">
      <contour>
        <pt x="129" y="499" on="1"/>
        <pt x="162" y="499" on="0"/>
        <pt x="351" y="498" on="0"/>
        <pt x="359" y="498" on="1"/>
        <pt x="314" y="453" on="1"/>
        <pt x="308" y="439" on="0"/>
        <pt x="283" y="406" on="0"/>
        <pt x="244" y="361" on="0"/>
        <pt x="237" y="353" on="1"/>
        <pt x="228" y="345" on="1"/>
        <pt x="269" y="313" on="0"/>
        <pt x="277" y="309" on="1"/>
        <pt x="341" y="278" on="0"/>
        <pt x="354" y="243" on="1"/>
        <pt x="368" y="210" on="0"/>
        <pt x="369" y="136" on="0"/>
        <pt x="353" y="74" on="0"/>
        <pt x="316" y="0" on="0"/>
        <pt x="282" y="-53" on="0"/>
        <pt x="257" y="-88" on="1"/>
        <pt x="119" y="-185" on="1"/>
        <pt x="130" y="-170" on="0"/>
        <pt x="166" y="-123" on="0"/>
        <pt x="196" y="-85" on="0"/>
        <pt x="232" y="-34" on="0"/>
        <pt x="258" y="9" on="0"/>
        <pt x="282" y="60" on="0"/>
        <pt x="293" y="104" on="0"/>
        <pt x="292" y="152" on="0"/>
        <pt x="284" y="173" on="1"/>
        <pt x="246" y="262" on="0"/>
        <pt x="219" y="276" on="1"/>
        <pt x="201" y="284" on="0"/>
        <pt x="156" y="277" on="1"/>
        <pt x="155" y="277" on="1"/>
        <pt x="158" y="280" on="1"/>
        <pt x="169" y="294" on="0"/>
        <pt x="213" y="378" on="0"/>
        <pt x="228" y="394" on="1"/>
        <pt x="276" y="427" on="1"/>
        <pt x="162" y="427" on="0"/>
        <pt x="58" y="429" on="1"/>
      </contour>
    </TTGlyph>
    <TTGlyph name="s" xMin="31" yMin="-9" xMax="379" yMax="516">
      <contour>
        <pt x="269" y="283" on="1"/>
        <pt x="288" y="329" on="0"/>
        <pt x="278" y="392" on="0"/>
        <pt x="250" y="431" on="0"/>
        <pt x="194" y="452" on="0"/>
        <pt x="138" y="458" on="0"/>
        <pt x="106" y="456" on="1"/>
        <pt x="113" y="380" on="0"/>
        <pt x="113" y="267" on="1"/>
        <pt x="176" y="288" on="0"/>
        <pt x="199" y="287" on="1"/>
        <pt x="258" y="285" on="0"/>
      </contour>
      <contour>
        <pt x="245" y="226" on="1"/>
        <pt x="241" y="222" on="1"/>
        <pt x="241" y="223" on="0"/>
        <pt x="243" y="227" on="1"/>
        <pt x="214" y="233" on="0"/>
        <pt x="147" y="235" on="1"/>
        <pt x="137" y="236" on="0"/>
        <pt x="114" y="231" on="1"/>
        <pt x="112" y="97" on="0"/>
        <pt x="109" y="64" on="1"/>
        <pt x="110" y="65" on="1"/>
        <pt x="123" y="62" on="0"/>
        <pt x="190" y="58" on="0"/>
        <pt x="294" y="63" on="0"/>
        <pt x="327" y="74" on="1"/>
        <pt x="335" y="102" on="0"/>
        <pt x="327" y="139" on="1"/>
        <pt x="311" y="209" on="0"/>
      </contour>
      <contour>
        <pt x="101" y="506" on="1"/>
        <pt x="137" y="514" on="0"/>
        <pt x="213" y="518" on="0"/>
        <pt x="295" y="499" on="0"/>
        <pt x="343" y="453" on="0"/>
        <pt x="338" y="353" on="0"/>
        <pt x="299" y="281" on="1"/>
        <pt x="297" y="278" on="1"/>
        <pt x="363" y="261" on="0"/>
        <pt x="379" y="191" on="1"/>
        <pt x="390" y="142" on="0"/>
        <pt x="365" y="94" on="1"/>
        <pt x="334" y="63" on="1"/>
        <pt x="304" y="31" on="1"/>
        <pt x="282" y="9" on="0"/>
        <pt x="158" y="-10" on="0"/>
        <pt x="65" y="-7" on="0"/>
        <pt x="43" y="-4" on="1"/>
        <pt x="39" y="-8" on="1"/>
        <pt x="45" y="7" on="0"/>
        <pt x="44" y="356" on="0"/>
        <pt x="31" y="435" on="1"/>
        <pt x="43" y="447" on="1"/>
        <pt x="42" y="447" on="1"/>
      </contour>
    </TTGlyph>
    <TTGlyph name="semicolon" xMin="98" yMin="189" xMax="359" yMax="501">
      <contour>
        <pt x="174" y="460" on="1"/>
        <pt x="191" y="424" on="0"/>
        <pt x="251" y="438" on="1"/>
        <pt x="309" y="453" on="0"/>
        <pt x="356" y="498" on="1"/>
        <pt x="285" y="428" on="1"/>
        <pt x="238" y="380" on="0"/>
        <pt x="117" y="350" on="0"/>
        <pt x="100" y="387" on="1"/>
      </contour>
      <contour>
        <pt x="172" y="282" on="1"/>
        <pt x="187" y="249" on="0"/>
        <pt x="298" y="275" on="0"/>
        <pt x="341" y="318" on="1"/>
        <pt x="268" y="245" on="1"/>
        <pt x="225" y="202" on="0"/>
        <pt x="114" y="176" on="0"/>
        <pt x="98" y="208" on="1"/>
      </contour>
      <contour>
        <pt x="356" y="498" on="1"/>
        <pt x="358" y="500" on="0"/>
        <pt x="359" y="501" on="1"/>
        <pt x="358" y="500" on="0"/>
      </contour>
    </TTGlyph>
    <TTGlyph name="seven" xMin="4" yMin="22" xMax="688" yMax="475">
      <contour>
        <pt x="324" y="242" on="1"/>
        <pt x="360" y="171" on="0"/>
        <pt x="393" y="155" on="1"/>
        <pt x="395" y="194" on="0"/>
        <pt x="390" y="246" on="1"/>
        <pt x="380" y="246" on="0"/>
        <pt x="335" y="243" on="0"/>
      </contour>
      <contour>
        <pt x="159" y="234" on="1"/>
        <pt x="190" y="159" on="0"/>
        <pt x="221" y="141" on="1"/>
        <pt x="229" y="178" on="0"/>
        <pt x="229" y="236" on="1"/>
        <pt x="181" y="234" on="0"/>
      </contour>
      <contour>
        <pt x="47" y="317" on="1"/>
        <pt x="44" y="305" on="0"/>
        <pt x="66" y="288" on="0"/>
        <pt x="89" y="283" on="1"/>
        <pt x="76" y="347" on="0"/>
        <pt x="87" y="375" on="1"/>
        <pt x="130" y="417" on="1"/>
        <pt x="112" y="375" on="0"/>
        <pt x="144" y="277" on="1"/>
        <pt x="182" y="276" on="0"/>
        <pt x="228" y="277" on="1"/>
        <pt x="225" y="333" on="0"/>
        <pt x="219" y="370" on="1"/>
        <pt x="215" y="390" on="1"/>
        <pt x="258" y="433" on="1"/>
        <pt x="260" y="424" on="0"/>
        <pt x="261" y="412" on="1"/>
        <pt x="277" y="347" on="0"/>
        <pt x="306" y="280" on="1"/>
        <pt x="360" y="284" on="0"/>
        <pt x="387" y="285" on="1"/>
        <pt x="379" y="354" on="0"/>
        <pt x="367" y="399" on="1"/>
        <pt x="363" y="411" on="0"/>
        <pt x="357" y="433" on="1"/>
        <pt x="400" y="475" on="1"/>
        <pt x="402" y="471" on="0"/>
        <pt x="410" y="442" on="1"/>
        <pt x="434" y="371" on="0"/>
        <pt x="472" y="291" on="1"/>
        <pt x="641" y="302" on="0"/>
        <pt x="688" y="287" on="1"/>
        <pt x="646" y="244" on="1"/>
        <pt x="607" y="257" on="0"/>
        <pt x="491" y="252" on="1"/>
        <pt x="533" y="168" on="0"/>
        <pt x="609" y="58" on="0"/>
        <pt x="625" y="64" on="1"/>
        <pt x="583" y="22" on="1"/>
        <pt x="565" y="16" on="0"/>
        <pt x="482" y="142" on="0"/>
        <pt x="436" y="236" on="1"/>
        <pt x="438" y="174" on="0"/>
        <pt x="427" y="153" on="1"/>
        <pt x="384" y="111" on="1"/>
        <pt x="334" y="85" on="0"/>
        <pt x="269" y="225" on="1"/>
        <pt x="264" y="169" on="0"/>
        <pt x="249" y="143" on="1"/>
        <pt x="206" y="101" on="1"/>
        <pt x="183" y="81" on="0"/>
        <pt x="122" y="166" on="0"/>
        <pt x="101" y="234" on="1"/>
        <pt x="-3" y="239" on="0"/>
        <pt x="4" y="275" on="1"/>
      </contour>
    </TTGlyph>
    <TTGlyph name="six" xMin="48" yMin="28" xMax="588" yMax="481">
      <contour>
        <pt x="244" y="238" on="1"/>
        <pt x="275" y="164" on="0"/>
        <pt x="305" y="148" on="1"/>
        <pt x="313" y="184" on="0"/>
        <pt x="313" y="243" on="1"/>
        <pt x="267" y="239" on="0"/>
      </contour>
      <contour>
        <pt x="91" y="317" on="1"/>
        <pt x="84" y="279" on="0"/>
        <pt x="175" y="276" on="1"/>
        <pt x="158" y="349" on="0"/>
        <pt x="171" y="381" on="1"/>
        <pt x="214" y="424" on="1"/>
        <pt x="196" y="380" on="0"/>
        <pt x="230" y="277" on="1"/>
        <pt x="256" y="278" on="0"/>
        <pt x="312" y="282" on="1"/>
        <pt x="309" y="353" on="0"/>
        <pt x="299" y="396" on="1"/>
        <pt x="300" y="397" on="1"/>
        <pt x="290" y="433" on="0"/>
        <pt x="289" y="439" on="1"/>
        <pt x="332" y="481" on="1"/>
        <pt x="349" y="404" on="0"/>
        <pt x="395" y="289" on="1"/>
        <pt x="550" y="302" on="0"/>
        <pt x="588" y="287" on="1"/>
        <pt x="545" y="244" on="1"/>
        <pt x="513" y="258" on="0"/>
        <pt x="411" y="251" on="1"/>
        <pt x="433" y="199" on="0"/>
        <pt x="474" y="115" on="0"/>
        <pt x="509" y="66" on="0"/>
        <pt x="518" y="70" on="1"/>
        <pt x="476" y="28" on="1"/>
        <pt x="466" y="24" on="0"/>
        <pt x="425" y="84" on="0"/>
        <pt x="378" y="183" on="0"/>
        <pt x="354" y="243" on="1"/>
        <pt x="351" y="180" on="0"/>
        <pt x="333" y="149" on="1"/>
        <pt x="290" y="107" on="1"/>
        <pt x="268" y="88" on="0"/>
        <pt x="209" y="168" on="0"/>
        <pt x="187" y="234" on="1"/>
        <pt x="40" y="229" on="0"/>
        <pt x="48" y="275" on="1"/>
      </contour>
    </TTGlyph>
    <TTGlyph name="slash" xMin="41" yMin="-209" xMax="693" yMax="810">
      <contour>
        <pt x="404" y="751" on="1"/>
        <pt x="411" y="756" on="0"/>
        <pt x="438" y="763" on="0"/>
        <pt x="445" y="758" on="1"/>
        <pt x="468" y="718" on="0"/>
        <pt x="458" y="71" on="1"/>
        <pt x="508" y="86" on="0"/>
        <pt x="552" y="116" on="1"/>
        <pt x="575" y="146" on="0"/>
        <pt x="590" y="171" on="1"/>
        <pt x="612" y="209" on="0"/>
        <pt x="632" y="310" on="0"/>
        <pt x="602" y="410" on="0"/>
        <pt x="554" y="426" on="1"/>
        <pt x="625" y="497" on="1"/>
        <pt x="672" y="481" on="0"/>
        <pt x="703" y="381" on="0"/>
        <pt x="683" y="279" on="0"/>
        <pt x="661" y="241" on="1"/>
        <pt x="643" y="212" on="0"/>
        <pt x="589" y="145" on="1"/>
        <pt x="518" y="74" on="1"/>
        <pt x="487" y="47" on="0"/>
        <pt x="457" y="30" on="1"/>
        <pt x="455" y="-112" on="0"/>
        <pt x="455" y="-116" on="1"/>
        <pt x="405" y="-166" on="1"/>
        <pt x="405" y="-163" on="0"/>
        <pt x="407" y="7" on="1"/>
        <pt x="365" y="-9" on="0"/>
        <pt x="314" y="-15" on="1"/>
        <pt x="310" y="-15" on="1"/>
        <pt x="308" y="-155" on="0"/>
        <pt x="308" y="-156" on="1"/>
        <pt x="254" y="-209" on="1"/>
        <pt x="254" y="-160" on="0"/>
        <pt x="257" y="-14" on="1"/>
        <pt x="157" y="1" on="0"/>
        <pt x="29" y="186" on="0"/>
        <pt x="41" y="291" on="1"/>
        <pt x="46" y="337" on="0"/>
        <pt x="72" y="397" on="0"/>
        <pt x="103" y="433" on="1"/>
        <pt x="174" y="503" on="1"/>
        <pt x="143" y="468" on="0"/>
        <pt x="117" y="408" on="0"/>
        <pt x="112" y="362" on="1"/>
        <pt x="102" y="277" on="0"/>
        <pt x="185" y="117" on="0"/>
        <pt x="258" y="79" on="1"/>
        <pt x="265" y="719" on="0"/>
        <pt x="253" y="756" on="1"/>
        <pt x="251" y="765" on="0"/>
        <pt x="238" y="755" on="1"/>
        <pt x="292" y="809" on="1"/>
        <pt x="304" y="818" on="0"/>
        <pt x="307" y="810" on="1"/>
        <pt x="319" y="774" on="0"/>
        <pt x="311" y="60" on="1"/>
        <pt x="344" y="51" on="0"/>
        <pt x="385" y="56" on="1"/>
        <pt x="401" y="58" on="0"/>
        <pt x="408" y="59" on="1"/>
        <pt x="418" y="669" on="0"/>
        <pt x="394" y="707" on="1"/>
        <pt x="389" y="716" on="0"/>
        <pt x="353" y="701" on="1"/>
      </contour>
    </TTGlyph>
    <TTGlyph name="t" xMin="45" yMin="-14" xMax="405" yMax="818">
      <contour>
        <pt x="115" y="818" on="1"/>
        <pt x="118" y="821" on="0"/>
        <pt x="123" y="806" on="0"/>
        <pt x="125" y="774" on="0"/>
        <pt x="125" y="730" on="0"/>
        <pt x="125" y="670" on="0"/>
        <pt x="123" y="608" on="0"/>
        <pt x="121" y="531" on="0"/>
        <pt x="119" y="461" on="0"/>
        <pt x="117" y="378" on="0"/>
        <pt x="117" y="344" on="1"/>
        <pt x="151" y="390" on="0"/>
        <pt x="174" y="414" on="1"/>
        <pt x="231" y="462" on="1"/>
        <pt x="232" y="463" on="1"/>
        <pt x="234" y="464" on="0"/>
        <pt x="236" y="466" on="1"/>
        <pt x="259" y="485" on="1"/>
        <pt x="251" y="477" on="1"/>
        <pt x="363" y="550" on="0"/>
        <pt x="383" y="386" on="1"/>
        <pt x="389" y="332" on="0"/>
        <pt x="385" y="163" on="1"/>
        <pt x="382" y="61" on="0"/>
        <pt x="397" y="61" on="1"/>
        <pt x="401" y="61" on="0"/>
        <pt x="405" y="64" on="1"/>
        <pt x="334" y="-7" on="1"/>
        <pt x="320" y="-18" on="0"/>
        <pt x="316" y="11" on="1"/>
        <pt x="313" y="29" on="0"/>
        <pt x="316" y="168" on="1"/>
        <pt x="321" y="366" on="0"/>
        <pt x="280" y="412" on="1"/>
        <pt x="252" y="443" on="0"/>
        <pt x="202" y="418" on="1"/>
        <pt x="187" y="400" on="0"/>
        <pt x="127" y="327" on="0"/>
        <pt x="116" y="314" on="1"/>
        <pt x="114" y="182" on="0"/>
        <pt x="128" y="42" on="0"/>
        <pt x="147" y="57" on="1"/>
        <pt x="76" y="-14" on="1"/>
        <pt x="61" y="-26" on="0"/>
        <pt x="53" y="18" on="1"/>
        <pt x="40" y="96" on="0"/>
        <pt x="51" y="475" on="1"/>
        <pt x="57" y="745" on="0"/>
        <pt x="45" y="748" on="1"/>
      </contour>
    </TTGlyph>
    <TTGlyph name="thorn" xMin="21" yMin="-145" xMax="527" yMax="825">
      <contour>
        <pt x="69" y="345" on="1"/>
        <pt x="141" y="357" on="0"/>
        <pt x="194" y="304" on="1"/>
        <pt x="194" y="321" on="1"/>
        <pt x="190" y="317" on="1"/>
        <pt x="190" y="318" on="0"/>
        <pt x="194" y="322" on="0"/>
        <pt x="194" y="323" on="1"/>
        <pt x="194" y="675" on="0"/>
        <pt x="182" y="754" on="1"/>
        <pt x="253" y="825" on="1"/>
        <pt x="265" y="748" on="0"/>
        <pt x="265" y="406" on="1"/>
        <pt x="269" y="410" on="0"/>
        <pt x="286" y="424" on="0"/>
        <pt x="290" y="428" on="1"/>
        <pt x="281" y="416" on="0"/>
        <pt x="265" y="394" on="1"/>
        <pt x="265" y="-39" on="0"/>
        <pt x="272" y="-74" on="1"/>
        <pt x="201" y="-145" on="1"/>
        <pt x="194" y="-110" on="0"/>
        <pt x="194" y="178" on="1"/>
        <pt x="172" y="241" on="0"/>
        <pt x="79" y="306" on="0"/>
        <pt x="21" y="296" on="1"/>
      </contour>
      <contour>
        <pt x="290" y="428" on="1"/>
        <pt x="414" y="523" on="0"/>
        <pt x="457" y="384" on="1"/>
        <pt x="527" y="455" on="1"/>
        <pt x="511" y="508" on="0"/>
        <pt x="454" y="545" on="0"/>
        <pt x="386" y="518" on="0"/>
        <pt x="322" y="466" on="0"/>
      </contour>
    </TTGlyph>
    <TTGlyph name="three" xMin="83" yMin="22" xMax="625" yMax="475">
      <contour>
        <pt x="130" y="417" on="1"/>
        <pt x="111" y="374" on="0"/>
        <pt x="181" y="164" on="0"/>
        <pt x="221" y="141" on="1"/>
        <pt x="240" y="230" on="0"/>
        <pt x="219" y="370" on="1"/>
        <pt x="215" y="390" on="1"/>
        <pt x="258" y="433" on="1"/>
        <pt x="260" y="424" on="0"/>
        <pt x="261" y="412" on="1"/>
        <pt x="277" y="344" on="0"/>
        <pt x="354" y="175" on="0"/>
        <pt x="393" y="155" on="1"/>
        <pt x="396" y="203" on="0"/>
        <pt x="380" y="350" on="0"/>
        <pt x="367" y="399" on="1"/>
        <pt x="363" y="411" on="0"/>
        <pt x="357" y="433" on="1"/>
        <pt x="400" y="475" on="1"/>
        <pt x="402" y="471" on="0"/>
        <pt x="410" y="442" on="1"/>
        <pt x="448" y="327" on="0"/>
        <pt x="599" y="55" on="0"/>
        <pt x="625" y="64" on="1"/>
        <pt x="583" y="22" on="1"/>
        <pt x="565" y="16" on="0"/>
        <pt x="482" y="142" on="0"/>
        <pt x="436" y="236" on="1"/>
        <pt x="438" y="174" on="0"/>
        <pt x="427" y="153" on="1"/>
        <pt x="384" y="111" on="1"/>
        <pt x="334" y="85" on="0"/>
        <pt x="269" y="225" on="1"/>
        <pt x="264" y="169" on="0"/>
        <pt x="249" y="143" on="1"/>
        <pt x="206" y="101" on="1"/>
        <pt x="177" y="76" on="0"/>
        <pt x="136" y="151" on="1"/>
        <pt x="93" y="231" on="0"/>
        <pt x="83" y="317" on="1"/>
        <pt x="79" y="355" on="0"/>
        <pt x="87" y="375" on="1"/>
      </contour>
    </TTGlyph>
    <TTGlyph name="two" xMin="83" yMin="22" xMax="434" yMax="475">
      <contour>
        <pt x="248" y="475" on="1"/>
        <pt x="272" y="369" on="0"/>
        <pt x="410" y="54" on="0"/>
        <pt x="434" y="64" on="1"/>
        <pt x="392" y="22" on="1"/>
        <pt x="382" y="18" on="0"/>
        <pt x="341" y="78" on="0"/>
        <pt x="294" y="176" on="0"/>
        <pt x="270" y="236" on="1"/>
        <pt x="267" y="174" on="0"/>
        <pt x="249" y="143" on="1"/>
        <pt x="206" y="101" on="1"/>
        <pt x="177" y="76" on="0"/>
        <pt x="136" y="151" on="1"/>
        <pt x="93" y="231" on="0"/>
        <pt x="83" y="317" on="1"/>
        <pt x="79" y="355" on="0"/>
        <pt x="87" y="375" on="1"/>
        <pt x="130" y="417" on="1"/>
        <pt x="111" y="374" on="0"/>
        <pt x="181" y="164" on="0"/>
        <pt x="221" y="141" on="1"/>
        <pt x="231" y="206" on="0"/>
        <pt x="225" y="341" on="0"/>
        <pt x="215" y="390" on="1"/>
        <pt x="216" y="391" on="1"/>
        <pt x="208" y="422" on="0"/>
        <pt x="206" y="433" on="1"/>
      </contour>
    </TTGlyph>
    <TTGlyph name="u" xMin="80" yMin="-4" xMax="496" yMax="496">
      <contour>
        <pt x="432" y="98" on="1"/>
        <pt x="464" y="145" on="0"/>
        <pt x="457" y="250" on="0"/>
        <pt x="392" y="351" on="0"/>
        <pt x="311" y="427" on="0"/>
        <pt x="229" y="462" on="0"/>
        <pt x="207" y="448" on="1"/>
        <pt x="93" y="295" on="0"/>
        <pt x="129" y="173" on="1"/>
        <pt x="153" y="93" on="0"/>
        <pt x="229" y="61" on="1"/>
        <pt x="313" y="27" on="0"/>
        <pt x="398" y="74" on="1"/>
        <pt x="416" y="84" on="0"/>
      </contour>
      <contour>
        <pt x="219" y="463" on="1"/>
        <pt x="247" y="496" on="1"/>
        <pt x="281" y="530" on="0"/>
        <pt x="454" y="413" on="0"/>
        <pt x="538" y="239" on="0"/>
        <pt x="486" y="154" on="1"/>
        <pt x="435" y="101" on="1"/>
        <pt x="436" y="102" on="0"/>
        <pt x="439" y="104" on="1"/>
        <pt x="442" y="106" on="0"/>
        <pt x="443" y="107" on="1"/>
        <pt x="373" y="40" on="1"/>
        <pt x="300" y="-25" on="0"/>
        <pt x="205" y="-4" on="1"/>
        <pt x="122" y="14" on="0"/>
        <pt x="80" y="86" on="1"/>
        <pt x="23" y="183" on="0"/>
        <pt x="86" y="306" on="1"/>
        <pt x="103" y="339" on="0"/>
        <pt x="128" y="372" on="1"/>
      </contour>
      <contour>
        <pt x="443" y="107" on="1"/>
        <pt x="443" y="107" on="0"/>
        <pt x="443" y="107" on="1"/>
      </contour>
    </TTGlyph>
    <TTGlyph name="uacute" xMin="80" yMin="-4" xMax="496" yMax="654">
      <contour>
        <pt x="432" y="98" on="1"/>
        <pt x="464" y="145" on="0"/>
        <pt x="457" y="250" on="0"/>
        <pt x="392" y="351" on="0"/>
        <pt x="311" y="427" on="0"/>
        <pt x="229" y="462" on="0"/>
        <pt x="207" y="448" on="1"/>
        <pt x="93" y="295" on="0"/>
        <pt x="129" y="173" on="1"/>
        <pt x="153" y="93" on="0"/>
        <pt x="229" y="61" on="1"/>
        <pt x="313" y="27" on="0"/>
        <pt x="398" y="74" on="1"/>
        <pt x="416" y="84" on="0"/>
      </contour>
      <contour>
        <pt x="219" y="463" on="1"/>
        <pt x="247" y="496" on="1"/>
        <pt x="281" y="530" on="0"/>
        <pt x="454" y="413" on="0"/>
        <pt x="538" y="239" on="0"/>
        <pt x="486" y="154" on="1"/>
        <pt x="435" y="101" on="1"/>
        <pt x="436" y="102" on="0"/>
        <pt x="439" y="104" on="1"/>
        <pt x="442" y="106" on="0"/>
        <pt x="443" y="107" on="1"/>
        <pt x="373" y="40" on="1"/>
        <pt x="300" y="-25" on="0"/>
        <pt x="205" y="-4" on="1"/>
        <pt x="122" y="14" on="0"/>
        <pt x="80" y="86" on="1"/>
        <pt x="23" y="183" on="0"/>
        <pt x="86" y="306" on="1"/>
        <pt x="103" y="339" on="0"/>
        <pt x="128" y="372" on="1"/>
      </contour>
      <contour>
        <pt x="184" y="654" on="1"/>
        <pt x="216" y="654" on="0"/>
        <pt x="424" y="652" on="0"/>
        <pt x="457" y="653" on="1"/>
        <pt x="404" y="601" on="1"/>
        <pt x="362" y="600" on="0"/>
        <pt x="294" y="601" on="0"/>
        <pt x="165" y="602" on="0"/>
        <pt x="132" y="602" on="1"/>
      </contour>
      <contour>
        <pt x="443" y="107" on="1"/>
        <pt x="443" y="107" on="0"/>
        <pt x="443" y="107" on="1"/>
      </contour>
    </TTGlyph>
    <TTGlyph name="v" xMin="45" yMin="-156" xMax="745" yMax="499">
      <contour>
        <pt x="303" y="82" on="1"/>
        <pt x="324" y="96" on="0"/>
        <pt x="339" y="118" on="1"/>
      </contour>
      <contour>
        <pt x="653" y="-3" on="1"/>
        <pt x="583" y="-73" on="1"/>
        <pt x="553" y="-98" on="0"/>
        <pt x="484" y="-132" on="0"/>
        <pt x="428" y="-149" on="0"/>
        <pt x="344" y="-156" on="0"/>
        <pt x="295" y="-156" on="0"/>
        <pt x="197" y="-154" on="0"/>
        <pt x="174" y="-154" on="1"/>
        <pt x="164" y="-154" on="0"/>
        <pt x="120" y="-150" on="0"/>
        <pt x="96" y="-149" on="0"/>
        <pt x="77" y="-153" on="1"/>
        <pt x="147" y="-83" on="1"/>
        <pt x="167" y="-79" on="0"/>
        <pt x="191" y="-80" on="0"/>
        <pt x="234" y="-84" on="0"/>
        <pt x="244" y="-84" on="1"/>
        <pt x="265" y="-84" on="0"/>
        <pt x="376" y="-87" on="0"/>
        <pt x="428" y="-85" on="0"/>
        <pt x="514" y="-76" on="0"/>
        <pt x="582" y="-51" on="0"/>
        <pt x="614" y="-31" on="1"/>
        <pt x="610" y="-38" on="0"/>
        <pt x="593" y="-60" on="1"/>
        <pt x="638" y="-15" on="1"/>
      </contour>
      <contour>
        <pt x="217" y="498" on="1"/>
        <pt x="178" y="443" on="0"/>
        <pt x="114" y="261" on="0"/>
        <pt x="115" y="193" on="1"/>
        <pt x="117" y="138" on="0"/>
        <pt x="180" y="69" on="0"/>
        <pt x="260" y="62" on="0"/>
        <pt x="298" y="79" on="1"/>
        <pt x="312" y="97" on="0"/>
        <pt x="318" y="112" on="1"/>
        <pt x="342" y="169" on="0"/>
        <pt x="354" y="292" on="1"/>
        <pt x="352" y="417" on="0"/>
        <pt x="357" y="429" on="1"/>
        <pt x="427" y="499" on="1"/>
        <pt x="435" y="452" on="0"/>
        <pt x="425" y="363" on="1"/>
        <pt x="425" y="341" on="1"/>
        <pt x="427" y="343" on="0"/>
        <pt x="434" y="351" on="0"/>
        <pt x="436" y="353" on="1"/>
        <pt x="470" y="388" on="1"/>
        <pt x="472" y="389" on="0"/>
        <pt x="482" y="394" on="0"/>
        <pt x="484" y="395" on="1"/>
        <pt x="465" y="366" on="0"/>
        <pt x="441" y="305" on="0"/>
        <pt x="432" y="225" on="0"/>
        <pt x="430" y="182" on="0"/>
        <pt x="432" y="75" on="0"/>
        <pt x="432" y="61" on="1"/>
        <pt x="362" y="-10" on="1"/>
        <pt x="362" y="-5" on="0"/>
        <pt x="358" y="137" on="1"/>
        <pt x="340" y="119" on="1"/>
        <pt x="340" y="120" on="1"/>
        <pt x="277" y="56" on="1"/>
        <pt x="284" y="63" on="0"/>
        <pt x="288" y="68" on="1"/>
        <pt x="270" y="49" on="1"/>
        <pt x="274" y="53" on="0"/>
        <pt x="277" y="56" on="1"/>
        <pt x="273" y="53" on="0"/>
        <pt x="270" y="49" on="1"/>
        <pt x="243" y="3" on="0"/>
        <pt x="136" y="-15" on="0"/>
        <pt x="47" y="55" on="0"/>
        <pt x="45" y="122" on="1"/>
        <pt x="43" y="178" on="0"/>
        <pt x="59" y="298" on="0"/>
        <pt x="118" y="431" on="0"/>
        <pt x="165" y="461" on="1"/>
      </contour>
      <contour>
        <pt x="461" y="381" on="1"/>
        <pt x="439" y="360" on="1"/>
        <pt x="450" y="373" on="0"/>
      </contour>
      <contour>
        <pt x="461" y="381" on="1"/>
        <pt x="464" y="384" on="0"/>
        <pt x="470" y="388" on="1"/>
        <pt x="506" y="424" on="1"/>
        <pt x="492" y="407" on="0"/>
        <pt x="484" y="395" on="1"/>
        <pt x="532" y="415" on="0"/>
        <pt x="639" y="365" on="0"/>
        <pt x="657" y="316" on="1"/>
        <pt x="682" y="253" on="0"/>
        <pt x="658" y="39" on="0"/>
        <pt x="614" y="-31" on="1"/>
        <pt x="630" y="-21" on="0"/>
        <pt x="638" y="-15" on="1"/>
        <pt x="650" y="-3" on="1"/>
        <pt x="692" y="35" on="0"/>
        <pt x="744" y="186" on="0"/>
        <pt x="745" y="329" on="0"/>
        <pt x="728" y="386" on="1"/>
        <pt x="717" y="416" on="0"/>
        <pt x="663" y="461" on="0"/>
        <pt x="600" y="479" on="0"/>
        <pt x="533" y="460" on="0"/>
        <pt x="510" y="431" on="1"/>
      </contour>
    </TTGlyph>
    <TTGlyph name="w" xMin="98" yMin="-17" xMax="626" yMax="502">
      <contour>
        <pt x="210" y="425" on="1"/>
        <pt x="183" y="380" on="0"/>
        <pt x="141" y="271" on="0"/>
        <pt x="125" y="157" on="0"/>
        <pt x="149" y="128" on="1"/>
        <pt x="162" y="111" on="0"/>
        <pt x="195" y="81" on="0"/>
        <pt x="245" y="51" on="0"/>
        <pt x="292" y="52" on="0"/>
        <pt x="319" y="67" on="1"/>
        <pt x="336" y="79" on="0"/>
        <pt x="347" y="89" on="1"/>
        <pt x="355" y="97" on="1"/>
        <pt x="378" y="184" on="0"/>
        <pt x="359" y="277" on="1"/>
        <pt x="345" y="348" on="0"/>
        <pt x="270" y="433" on="0"/>
      </contour>
      <contour>
        <pt x="288" y="502" on="1"/>
        <pt x="612" y="501" on="1"/>
        <pt x="621" y="492" on="0"/>
        <pt x="630" y="109" on="0"/>
        <pt x="626" y="61" on="1"/>
        <pt x="626" y="50" on="0"/>
        <pt x="611" y="33" on="1"/>
        <pt x="556" y="-13" on="1"/>
        <pt x="556" y="-10" on="1"/>
        <pt x="560" y="39" on="0"/>
        <pt x="552" y="428" on="0"/>
        <pt x="543" y="437" on="1"/>
        <pt x="474" y="434" on="0"/>
        <pt x="399" y="432" on="1"/>
        <pt x="438" y="359" on="0"/>
        <pt x="435" y="153" on="0"/>
        <pt x="398" y="100" on="1"/>
        <pt x="332" y="35" on="1"/>
        <pt x="328" y="27" on="0"/>
        <pt x="326" y="24" on="1"/>
        <pt x="323" y="17" on="0"/>
        <pt x="315" y="7" on="0"/>
        <pt x="304" y="1" on="0"/>
        <pt x="294" y="-3" on="0"/>
        <pt x="280" y="-6" on="0"/>
        <pt x="273" y="-6" on="0"/>
        <pt x="259" y="-7" on="0"/>
        <pt x="258" y="-7" on="1"/>
        <pt x="127" y="-10" on="0"/>
        <pt x="98" y="101" on="1"/>
        <pt x="81" y="166" on="0"/>
        <pt x="127" y="332" on="0"/>
        <pt x="168" y="389" on="1"/>
        <pt x="228" y="453" on="1"/>
        <pt x="227" y="452" on="0"/>
        <pt x="226" y="450" on="1"/>
        <pt x="271" y="498" on="1"/>
        <pt x="274" y="498" on="0"/>
        <pt x="284" y="500" on="0"/>
        <pt x="286" y="500" on="1"/>
      </contour>
      <contour>
        <pt x="554" y="-14" on="1"/>
        <pt x="550" y="-17" on="1"/>
        <pt x="553" y="-14" on="0"/>
      </contour>
      <contour>
        <pt x="554" y="-14" on="1"/>
        <pt x="555" y="-14" on="0"/>
        <pt x="556" y="-15" on="1"/>
        <pt x="556" y="-13" on="1"/>
        <pt x="555" y="-13" on="0"/>
      </contour>
    </TTGlyph>
    <TTGlyph name="x" xMin="45" yMin="-53" xMax="568" yMax="777">
      <contour>
        <pt x="403" y="777" on="1"/>
        <pt x="380" y="746" on="0"/>
        <pt x="278" y="618" on="0"/>
        <pt x="231" y="557" on="0"/>
        <pt x="161" y="448" on="0"/>
        <pt x="132" y="372" on="0"/>
        <pt x="113" y="272" on="0"/>
        <pt x="119" y="223" on="1"/>
        <pt x="127" y="156" on="0"/>
        <pt x="206" y="59" on="0"/>
        <pt x="313" y="18" on="0"/>
        <pt x="437" y="29" on="0"/>
        <pt x="489" y="64" on="1"/>
        <pt x="487" y="59" on="0"/>
        <pt x="481" y="49" on="1"/>
        <pt x="467" y="30" on="0"/>
        <pt x="445" y="14" on="1"/>
        <pt x="445" y="13" on="1"/>
        <pt x="376" y="-49" on="0"/>
        <pt x="195" y="-56" on="0"/>
        <pt x="56" y="54" on="0"/>
        <pt x="45" y="149" on="1"/>
        <pt x="39" y="201" on="0"/>
        <pt x="58" y="307" on="0"/>
        <pt x="88" y="386" on="0"/>
        <pt x="162" y="501" on="0"/>
        <pt x="210" y="565" on="0"/>
        <pt x="263" y="632" on="1"/>
        <pt x="298" y="677" on="0"/>
        <pt x="316" y="700" on="1"/>
      </contour>
      <contour>
        <pt x="489" y="64" on="1"/>
        <pt x="495" y="68" on="0"/>
        <pt x="519" y="87" on="1"/>
        <pt x="518" y="87" on="1"/>
        <pt x="559" y="117" on="0"/>
        <pt x="577" y="195" on="0"/>
        <pt x="544" y="253" on="0"/>
        <pt x="484" y="289" on="0"/>
        <pt x="455" y="283" on="1"/>
        <pt x="381" y="209" on="1"/>
        <pt x="413" y="216" on="0"/>
        <pt x="479" y="174" on="0"/>
        <pt x="505" y="105" on="0"/>
      </contour>
    </TTGlyph>
</ttFont>
